<?xml version="1.0" encoding="UTF-8" standalone="no" ?>
<!DOCTYPE svg PUBLIC "-//W3C//DTD SVG 1.1//EN" "http://www.w3.org/Graphics/SVG/1.1/DTD/svg11.dtd">
<svg xmlns="http://www.w3.org/2000/svg" xmlns:xlink="http://www.w3.org/1999/xlink" version="1.1" width="1280" height="1024" viewBox="0 0 1280 1024" xml:space="preserve">
<desc>Created with Fabric.js 4.4.0</desc>
<defs>
</defs>
<g transform="matrix(1 0 0 1 640 512)" id="background-logo"  >
<rect style="stroke: none; stroke-width: 0; stroke-dasharray: none; stroke-linecap: butt; stroke-dashoffset: 0; stroke-linejoin: miter; stroke-miterlimit: 4; fill: rgb(255,255,255); fill-opacity: 0; fill-rule: nonzero; opacity: 1;"  paint-order="stroke"  x="-640" y="-512" rx="0" ry="0" width="1280" height="1024" />
</g>
<g transform="matrix(3.106411978484077 0 0 3.106411978484077 640.1668113812451 512.4893133849853)" id="logo-logo"  >
<g style=""  paint-order="stroke"   >
		<g transform="matrix(1.631576087591631 0 0 -1.631576087591631 -1.7053026e-13 1.1368684e-13)"  >
<linearGradient id="SVGID_1_403921" gradientUnits="userSpaceOnUse" gradientTransform="matrix(146.93013 0 0 -146.93013 172.73853 274.59955)"  x1="0" y1="0" x2="1" y2="0">
<stop offset="0%" style="stop-color:rgb(198,0,77);stop-opacity: 1"/>
<stop offset="100%" style="stop-color:rgb(255,65,118);stop-opacity: 1"/>
</linearGradient>
<path style="stroke: none; stroke-width: 1; stroke-dasharray: none; stroke-linecap: butt; stroke-dashoffset: 0; stroke-linejoin: miter; stroke-miterlimit: 4; fill: url(#SVGID_1_403921); fill-rule: nonzero; opacity: 1;"  paint-order="stroke"  transform=" translate(-246.2037437968297, -274.5994999999999)" d="M 229.146 352.356 C 225.094 350.596 223.236 345.883 224.99499999999998 341.831 L 224.99499999999998 341.831 L 226.76199999999997 337.764 C 225.69899999999998 337.693 224.63399999999996 337.411 223.62699999999998 336.891 L 223.62699999999998 336.891 C 220.09499999999997 335.06600000000003 215.50599999999997 331.92400000000004 211.67999999999998 326.774 L 211.67999999999998 326.774 C 210.15599999999998 330.538 208.57899999999998 333.796 207.03499999999997 336.597 L 207.03499999999997 336.597 L 212.84699999999998 344.70399999999995 C 214.295 346.72399999999993 213.832 349.53599999999994 211.81099999999998 350.9839999999999 L 211.81099999999998 350.9839999999999 C 209.79199999999997 352.4319999999999 206.98 351.9679999999999 205.533 349.9479999999999 L 205.533 349.9479999999999 L 201.807 344.74999999999994 C 198.50099999999998 349.14199999999994 196.027 351.11099999999993 195.69099999999997 351.3689999999999 L 195.69099999999997 351.3689999999999 C 190.063 354.31299999999993 186.37499999999997 349.9999999999999 184.74999999999997 347.56299999999993 L 184.74999999999997 347.56299999999993 C 183.14399999999998 345.1529999999999 182.74799999999996 340.99699999999996 185.85599999999997 338.74799999999993 L 185.85599999999997 338.74799999999993 C 186.01399999999995 338.61599999999993 189.56199999999995 335.5229999999999 193.63799999999998 327.7899999999999 L 193.63799999999998 327.7899999999999 C 185.45 327.8279999999999 179.896 326.8169999999999 179.23299999999998 326.6899999999999 L 179.23299999999998 326.6899999999999 C 174.89299999999997 325.8579999999999 172.051 321.6649999999999 172.884 317.3269999999999 L 172.884 317.3269999999999 C 173.71599999999998 312.9879999999999 177.91099999999997 310.1409999999999 182.24699999999999 310.97699999999986 L 182.24699999999999 310.97699999999986 C 182.41899999999998 311.00899999999984 189.851 312.35799999999983 200.09599999999998 311.44599999999986 L 200.09599999999998 311.44599999999986 C 201.38899999999998 307.0269999999999 202.57099999999997 301.98199999999986 203.52999999999997 296.23899999999986 L 203.52999999999997 296.23899999999986 C 190.36299999999997 292.14099999999985 180.73999999999998 279.1589999999999 180.73999999999998 263.7599999999999 L 180.73999999999998 263.7599999999999 C 180.73999999999998 258.9299999999999 181.68999999999997 254.34999999999988 183.39 250.19999999999987 L 183.39 250.19999999999987 L 183.39 250.18999999999988 C 183.60999999999999 249.6499999999999 183.85 249.1199999999999 184.1 248.5899999999999 L 184.1 248.5899999999999 L 184.1 248.5799999999999 C 184.26999999999998 248.2299999999999 184.43 247.8799999999999 184.60999999999999 247.5399999999999 L 184.60999999999999 247.5399999999999 C 201.23999999999998 213.4699999999999 242.75 196.70999999999992 244.04 196.1899999999999 L 244.04 196.1899999999999 C 244.06 196.17999999999992 244.07 196.17999999999992 244.07 196.17999999999992 L 244.07 196.17999999999992 C 244.07 196.17999999999992 286.65 212.92999999999992 303.53999999999996 247.5399999999999 L 303.53999999999996 247.5399999999999 C 303.71 247.8799999999999 303.87999999999994 248.2299999999999 304.03999999999996 248.5799999999999 L 304.03999999999996 248.5799999999999 C 304.03999999999996 248.5799999999999 304.03999999999996 248.5899999999999 304.04999999999995 248.5899999999999 L 304.04999999999995 248.5899999999999 C 304.28999999999996 249.1199999999999 304.53 249.6499999999999 304.74999999999994 250.18999999999988 L 304.74999999999994 250.18999999999988 L 304.74999999999994 250.19999999999987 C 305.54999999999995 252.15999999999988 306.17999999999995 254.20999999999987 306.61999999999995 256.33999999999986 L 306.61999999999995 256.33999999999986 C 307.12999999999994 258.72999999999985 307.3999999999999 261.20999999999987 307.3999999999999 263.7599999999999 L 307.3999999999999 263.7599999999999 C 307.3999999999999 274.0629999999999 303.08899999999994 283.2839999999999 296.2929999999999 289.4909999999999 L 296.2929999999999 289.4909999999999 C 300.01999999999987 288.3819999999999 303.9689999999999 286.8679999999999 308.1419999999999 284.81799999999987 L 308.1419999999999 284.81799999999987 C 312.10699999999986 282.8699999999999 316.9019999999999 284.50799999999987 318.8479999999999 288.4739999999999 L 318.8479999999999 288.4739999999999 C 320.7949999999999 292.44099999999986 319.1579999999999 297.23399999999987 315.1929999999999 299.18099999999987 L 315.1929999999999 299.18099999999987 C 297.29299999999995 307.9689999999999 282.1809999999999 309.01999999999987 270.76699999999994 307.3699999999999 L 270.76699999999994 307.3699999999999 C 270.36299999999994 309.1969999999999 269.7559999999999 311.0269999999999 268.81899999999996 312.8329999999999 L 268.81899999999996 312.8329999999999 C 268.268 313.8959999999999 267.63899999999995 314.8979999999999 266.965 315.8589999999999 L 266.965 315.8589999999999 L 274.85999999999996 325.97399999999993 C 276.38999999999993 327.9339999999999 276.04099999999994 330.7609999999999 274.08199999999994 332.29099999999994 L 274.08199999999994 332.29099999999994 C 272.1239999999999 333.81699999999995 269.29599999999994 333.4719999999999 267.76599999999996 331.51199999999994 L 267.76599999999996 331.51199999999994 L 260.58899999999994 322.31499999999994 C 260.15199999999993 322.62999999999994 259.70399999999995 322.92699999999996 259.2509999999999 323.2149999999999 L 259.2509999999999 323.2149999999999 L 263.28599999999994 334.9069999999999 C 264.0969999999999 337.2559999999999 262.84899999999993 339.8179999999999 260.49999999999994 340.6289999999999 L 260.49999999999994 340.6289999999999 C 258.14599999999996 341.4389999999999 255.58799999999994 340.1919999999999 254.77799999999993 337.8429999999999 L 254.77799999999993 337.8429999999999 L 250.95999999999992 326.7779999999999 C 250.23999999999992 326.9559999999999 249.51499999999993 327.1039999999999 248.78399999999993 327.2229999999999 L 248.78399999999993 327.2229999999999 L 239.67199999999994 348.2059999999999 C 238.36199999999994 351.2189999999999 235.41899999999993 353.0189999999999 232.32799999999995 353.0189999999999 L 232.32799999999995 353.0189999999999 C 231.26499999999996 353.0189999999999 230.18399999999994 352.80599999999987 229.14599999999996 352.3559999999999 M 244.01199999999994 311.5509999999999 C 244.11999999999995 311.55699999999985 244.22899999999996 311.56099999999986 244.33899999999994 311.5629999999999 L 244.33899999999994 311.5629999999999 C 244.71999999999994 311.56799999999987 245.10199999999995 311.55199999999985 245.48399999999995 311.51599999999985 L 245.48399999999995 311.51599999999985 C 245.58599999999996 311.50599999999986 245.68699999999995 311.49699999999984 245.78999999999996 311.48399999999987 L 245.78999999999996 311.48399999999987 C 246.16499999999996 311.4379999999999 246.54099999999997 311.3679999999999 246.91199999999998 311.28299999999984 L 246.91199999999998 311.28299999999984 C 247.05299999999997 311.25099999999986 247.19199999999998 311.21999999999986 247.33199999999997 311.18199999999985 L 247.33199999999997 311.18199999999985 C 247.54399999999995 311.12499999999983 247.75699999999998 311.06399999999985 247.96699999999996 310.99599999999987 L 247.96699999999996 310.99599999999987 C 248.28399999999996 310.8899999999999 248.59899999999996 310.7689999999999 248.90999999999997 310.63399999999984 L 248.90999999999997 310.63399999999984 C 249.03699999999998 310.57999999999987 249.16399999999996 310.52399999999983 249.28999999999996 310.46599999999984 L 249.28999999999996 310.46599999999984 C 249.67599999999996 310.2819999999998 250.05799999999996 310.08099999999985 250.42999999999995 309.85499999999985 L 250.42999999999995 309.85499999999985 C 250.46499999999995 309.83299999999986 250.50099999999995 309.81099999999986 250.53699999999995 309.7889999999999 L 250.53699999999995 309.7889999999999 C 250.95899999999995 309.5239999999999 251.37099999999995 309.2359999999999 251.76699999999994 308.9139999999999 L 251.76699999999994 308.9139999999999 C 251.76899999999995 308.91199999999986 251.76999999999992 308.9109999999999 251.77299999999994 308.90999999999985 L 251.77299999999994 308.90999999999985 C 252.93199999999993 307.96999999999986 253.91899999999993 306.81099999999986 254.61699999999993 305.4639999999998 L 254.61699999999993 305.4639999999998 C 254.96599999999992 304.7909999999998 255.18199999999993 303.95599999999985 255.31499999999994 302.97599999999983 L 255.31499999999994 302.97599999999983 C 254.82599999999994 302.7599999999998 254.34899999999993 302.54299999999984 253.90199999999993 302.3299999999998 L 253.90199999999993 302.3299999999998 C 250.74999999999994 305.85799999999983 247.42999999999992 308.9099999999998 244.01199999999994 311.5509999999998 M 235.99399999999994 297.4039999999998 C 238.08999999999995 295.6589999999998 240.12599999999995 293.7099999999998 242.07299999999995 291.5339999999998 L 242.07299999999995 291.5339999999998 C 241.56799999999996 290.46799999999985 241.03399999999996 289.2549999999998 240.48899999999995 287.8779999999998 L 240.48899999999995 287.8779999999998 C 238.60899999999995 291.0179999999998 237.03099999999995 294.1619999999998 235.99399999999994 297.4039999999998" stroke-linecap="round" />
</g>
		<g transform="matrix(1.631576087591631 0 0 -1.631576087591631 35.643703773196876 78.86957228613556)"  >
<linearGradient id="SVGID_2_403922" gradientUnits="userSpaceOnUse" gradientTransform="matrix(54.515827 -5.9202704 -5.9202704 -54.515827 234.79007 230.66414)"  x1="0" y1="0" x2="1" y2="0">
<stop offset="0%" style="stop-color:rgb(198,0,77);stop-opacity: 1"/>
<stop offset="9.92063%" style="stop-color:rgb(198,0,77);stop-opacity: 1"/>
<stop offset="53.2632%" style="stop-color:rgb(255,65,118);stop-opacity: 1"/>
<stop offset="96.6442%" style="stop-color:rgb(255,113,161);stop-opacity: 1"/>
<stop offset="100%" style="stop-color:rgb(255,113,161);stop-opacity: 1"/>
</linearGradient>
<path style="stroke: none; stroke-width: 1; stroke-dasharray: none; stroke-linecap: butt; stroke-dashoffset: 0; stroke-linejoin: miter; stroke-miterlimit: 4; fill: url(#SVGID_2_403922); fill-rule: nonzero; opacity: 1;"  paint-order="stroke"  transform=" translate(-268.04992311036125, -226.26)" d="M 265 243 C 227.4 240.29 218.39 210.46 244.04 196.19 L 244.04 196.19 C 244.06 196.18 244.07 196.18 244.07 196.18 L 244.07 196.18 C 244.07 196.18 286.65 212.93 303.53999999999996 247.54000000000002 L 303.53999999999996 247.54000000000002 C 303.71 247.88000000000002 303.87999999999994 248.23000000000002 304.03999999999996 248.58 L 304.03999999999996 248.58 C 304.03999999999996 248.58 304.03999999999996 248.59 304.04999999999995 248.59 L 304.04999999999995 248.59 C 304.28999999999996 249.12 304.53 249.65 304.74999999999994 250.19 L 304.74999999999994 250.19 L 304.74999999999994 250.2 C 305.54999999999995 252.16 306.17999999999995 254.20999999999998 306.61999999999995 256.34 L 306.61999999999995 256.34 C 301.43 251.74 289.65 244.78 265 243" stroke-linecap="round" />
</g>
		<g transform="matrix(1.631576087591631 0 0 -1.631576087591631 20.969730205217843 -61.37336611084697)"  >
<linearGradient id="SVGID_3_403923" gradientUnits="userSpaceOnUse" gradientTransform="matrix(0.125 45.25 45.25 -0.125 258.88962 267.7876)"  x1="0" y1="0" x2="1" y2="0">
<stop offset="0%" style="stop-color:rgb(214,0,17);stop-opacity: 1"/>
<stop offset="0.510204%" style="stop-color:rgb(214,0,17);stop-opacity: 1"/>
<stop offset="96.6442%" style="stop-color:rgb(162,0,18);stop-opacity: 1"/>
<stop offset="100%" style="stop-color:rgb(162,0,18);stop-opacity: 1"/>
</linearGradient>
<path style="stroke: none; stroke-width: 1; stroke-dasharray: none; stroke-linecap: butt; stroke-dashoffset: 0; stroke-linejoin: miter; stroke-miterlimit: 4; fill: url(#SVGID_3_403923); fill-rule: nonzero; opacity: 1;"  paint-order="stroke"  transform=" translate(-259.05618161122027, -312.2155000000001)" d="M 267.766 331.512 L 260.589 322.315 C 255.29 326.137 248.74099999999999 328.034 242.299 327.488 L 242.299 327.488 L 244.127 311.563 C 248.234 311.70599999999996 252.606 309.34299999999996 254.61700000000002 305.464 L 254.61700000000002 305.464 C 255.353 304.044 255.508 301.922 255.514 299.172 L 255.514 299.172 C 255.523 294.759 259.103 291.18800000000005 263.514 291.18800000000005 L 263.514 291.18800000000005 L 263.529 291.18800000000005 C 267.948 291.19700000000006 271.523 294.78600000000006 271.514 299.20400000000006 L 271.514 299.20400000000006 C 271.505 303.6020000000001 271.172 308.29800000000006 268.819 312.8330000000001 L 268.819 312.8330000000001 C 268.26800000000003 313.8960000000001 267.639 314.8980000000001 266.96500000000003 315.8590000000001 L 266.96500000000003 315.8590000000001 L 274.86 325.9740000000001 C 276.39 327.9340000000001 276.041 330.7610000000001 274.082 332.2910000000001 L 274.082 332.2910000000001 C 273.26 332.93200000000013 272.28499999999997 333.24200000000013 271.316 333.2430000000001 L 271.316 333.2430000000001 C 269.97799999999995 333.2430000000001 268.654 332.6490000000001 267.76599999999996 331.5120000000001" stroke-linecap="round" />
</g>
		<g transform="matrix(1.631576087591631 0 0 -1.631576087591631 1.2626613469554968 2.816100327182994)"  >
<linearGradient id="SVGID_4_403924" gradientUnits="userSpaceOnUse" gradientTransform="matrix(55.382359 0 0 -55.382359 219.28627 272.8735)"  x1="0" y1="0" x2="1" y2="0">
<stop offset="0%" style="stop-color:rgb(214,0,17);stop-opacity: 1"/>
<stop offset="0.510204%" style="stop-color:rgb(214,0,17);stop-opacity: 1"/>
<stop offset="96.6442%" style="stop-color:rgb(162,0,18);stop-opacity: 1"/>
<stop offset="100%" style="stop-color:rgb(162,0,18);stop-opacity: 1"/>
</linearGradient>
<path style="stroke: none; stroke-width: 1; stroke-dasharray: none; stroke-linecap: butt; stroke-dashoffset: 0; stroke-linejoin: miter; stroke-miterlimit: 4; fill: url(#SVGID_4_403924); fill-rule: nonzero; opacity: 1;"  paint-order="stroke"  transform=" translate(-246.97763436592936, -272.87350000000004)" d="M 234.265 325.447 C 222.077 320.048 216.38899999999998 306.225 220.738 292.579 L 220.738 292.579 C 223.551 283.752 228.723 276.33 233.726 269.15000000000003 L 233.726 269.15000000000003 C 235.212 267.01800000000003 236.615 265.004 237.911 263.02000000000004 L 237.911 263.02000000000004 C 239.111 261.11100000000005 247.583 245.11900000000003 252.643 235.56200000000004 L 252.643 235.56200000000004 C 256.728 227.85200000000003 259.069 223.43600000000004 259.714 222.30300000000005 L 259.714 222.30300000000005 C 261.188 219.71200000000005 263.893 218.25900000000004 266.674 218.25900000000004 L 266.674 218.25900000000004 C 268.01599999999996 218.25900000000004 269.375 218.59600000000003 270.62399999999997 219.30700000000004 L 270.62399999999997 219.30700000000004 C 274.46399999999994 221.49200000000005 275.806 226.37700000000004 273.61999999999995 230.21600000000004 L 273.61999999999995 230.21600000000004 C 273.06399999999996 231.19400000000005 270.0129999999999 236.95400000000004 266.78299999999996 243.05200000000005 L 266.78299999999996 243.05200000000005 C 257.04999999999995 261.427 252.50799999999995 269.93000000000006 251.32699999999997 271.73900000000003 L 251.32699999999997 271.73900000000003 C 249.87999999999997 273.954 248.34099999999998 276.16200000000003 246.85399999999996 278.29800000000006 L 246.85399999999996 278.29800000000006 C 242.33099999999996 284.78700000000003 238.06099999999995 290.9150000000001 235.98199999999997 297.43800000000005 L 235.98199999999997 297.43800000000005 C 234.46599999999998 302.1940000000001 235.30999999999997 308.41 240.74499999999998 310.81800000000004 L 240.74499999999998 310.81800000000004 C 241.80899999999997 311.29 242.95799999999997 311.52200000000005 244.12699999999998 311.56300000000005 L 244.12699999999998 311.56300000000005 L 242.29899999999998 327.48800000000006 C 239.56599999999997 327.25600000000003 236.85199999999998 326.59400000000005 234.265 325.44700000000006" stroke-linecap="round" />
</g>
		<g transform="matrix(1.631576087591631 0 0 -1.631576087591631 0 -51.040594908986805)"  >
<linearGradient id="SVGID_5_403925" gradientUnits="userSpaceOnUse" gradientTransform="matrix(-5.875 33.5 33.5 5.875 247.67209 297.0437)"  x1="0" y1="0" x2="1" y2="0">
<stop offset="0%" style="stop-color:rgb(255,92,214);stop-opacity: 1"/>
<stop offset="96.6442%" style="stop-color:rgb(255,78,172);stop-opacity: 1"/>
<stop offset="100%" style="stop-color:rgb(255,78,172);stop-opacity: 1"/>
</linearGradient>
<path style="stroke: none; stroke-width: 1; stroke-dasharray: none; stroke-linecap: butt; stroke-dashoffset: 0; stroke-linejoin: miter; stroke-miterlimit: 4; fill: url(#SVGID_5_403925); fill-rule: nonzero; opacity: 1;"  paint-order="stroke"  transform=" translate(-246.20374379682983, -305.8825000985904)" d="M 179.233 326.69 C 174.893 325.858 172.05100000000002 321.665 172.88400000000001 317.327 L 172.88400000000001 317.327 C 173.716 312.988 177.911 310.141 182.247 310.977 L 182.247 310.977 C 182.649 311.053 222.58 318.30499999999995 245.57000000000002 287.23999999999995 L 245.57000000000002 287.23999999999995 C 246.854 285.50499999999994 248.75500000000002 284.34 250.895 284.049 L 250.895 284.049 C 251.262 283.99899999999997 251.62800000000001 283.974 251.99200000000002 283.974 L 251.99200000000002 283.974 C 253.75300000000001 283.974 255.46 284.551 256.87 285.654 L 256.87 285.654 C 257.669 286.254 276.82 300.195 308.142 284.818 L 308.142 284.818 C 312.10699999999997 282.87 316.902 284.508 318.848 288.474 L 318.848 288.474 C 320.795 292.441 319.158 297.234 315.19300000000004 299.181 L 315.19300000000004 299.181 C 286.08700000000005 313.471 264.33500000000004 307.31399999999996 253.90200000000004 302.33 L 253.90200000000004 302.33 C 234.55500000000004 323.99 208.85000000000005 327.792 193.18300000000005 327.791 L 193.18300000000005 327.791 C 185.24600000000004 327.791 179.88400000000004 326.815 179.23300000000006 326.69" stroke-linecap="round" />
</g>
		<g transform="matrix(1.631576087591631 0 0 -1.631576087591631 -60.02762887793335 -39.15374716198022)"  >
<linearGradient id="SVGID_6_403926" gradientUnits="userSpaceOnUse" gradientTransform="matrix(51.775028 0 0 -51.775028 183.52498 298.5968)"  x1="0" y1="0" x2="1" y2="0">
<stop offset="0%" style="stop-color:rgb(197,97,255);stop-opacity: 1"/>
<stop offset="0.510204%" style="stop-color:rgb(197,97,255);stop-opacity: 1"/>
<stop offset="96.6442%" style="stop-color:rgb(140,0,203);stop-opacity: 1"/>
<stop offset="100%" style="stop-color:rgb(140,0,203);stop-opacity: 1"/>
</linearGradient>
<path style="stroke: none; stroke-width: 1; stroke-dasharray: none; stroke-linecap: butt; stroke-dashoffset: 0; stroke-linejoin: miter; stroke-miterlimit: 4; fill: url(#SVGID_6_403926); fill-rule: nonzero; opacity: 1;"  paint-order="stroke"  transform=" translate(-209.4125519336663, -298.597)" d="M 184.75 347.563 C 183.144 345.15299999999996 182.748 340.997 185.856 338.748 L 185.856 338.748 C 186.254 338.413 208.475 319.05 205.742 253.165 L 205.742 253.165 C 205.559 248.751 208.98899999999998 245.023 213.404 244.84 L 213.404 244.84 C 213.517 244.836 213.628 244.833 213.74099999999999 244.833 L 213.74099999999999 244.833 C 218.00599999999997 244.834 221.54999999999998 248.2 221.72899999999998 252.502 L 221.72899999999998 252.502 C 222.44199999999998 269.72 221.54 284.168 219.71099999999998 296.237 L 219.71099999999998 296.237 C 220.14999999999998 297.29600000000005 220.37499999999997 298.46200000000005 220.315 299.684 L 220.315 299.684 C 219.757 310.999 223.341 318.73400000000004 230.97 322.675 L 230.97 322.675 C 234.895 324.70300000000003 236.434 329.529 234.406 333.454 L 234.406 333.454 C 232.37800000000001 337.38 227.55100000000002 338.919 223.627 336.891 L 223.627 336.891 C 220.095 335.06600000000003 215.506 331.92400000000004 211.68 326.774 L 211.68 326.774 C 210.156 330.538 208.579 333.796 207.035 336.597 L 207.035 336.597 L 212.847 344.70399999999995 C 214.29500000000002 346.72399999999993 213.83200000000002 349.53599999999994 211.811 350.9839999999999 L 211.811 350.9839999999999 C 209.792 352.4319999999999 206.98000000000002 351.9679999999999 205.53300000000002 349.9479999999999 L 205.53300000000002 349.9479999999999 L 201.80700000000002 344.74999999999994 C 198.501 349.14199999999994 196.02700000000002 351.11099999999993 195.69100000000003 351.3689999999999 L 195.69100000000003 351.3689999999999 C 194.34800000000004 352.0719999999999 193.11400000000003 352.36099999999993 191.99400000000003 352.36099999999993 L 191.99400000000003 352.36099999999993 C 188.41900000000004 352.36099999999993 185.98700000000002 349.41799999999995 184.75000000000003 347.56299999999993" stroke-linecap="round" />
</g>
		<g transform="matrix(1.631576087591631 0 0 -1.631576087591631 2.445517867421813 30.07565807815854)"  >
<linearGradient id="SVGID_7_403927" gradientUnits="userSpaceOnUse" gradientTransform="matrix(-7.6666665 -93.999992 -93.999992 7.6666665 251.16083 297.73511)"  x1="0" y1="0" x2="1" y2="0">
<stop offset="0%" style="stop-color:rgb(255,92,214);stop-opacity: 1"/>
<stop offset="96.6442%" style="stop-color:rgb(255,78,172);stop-opacity: 1"/>
<stop offset="100%" style="stop-color:rgb(255,78,172);stop-opacity: 1"/>
</linearGradient>
<path style="stroke: none; stroke-width: 1; stroke-dasharray: none; stroke-linecap: butt; stroke-dashoffset: 0; stroke-linejoin: miter; stroke-miterlimit: 4; fill: url(#SVGID_7_403927); fill-rule: nonzero; opacity: 1;"  paint-order="stroke"  transform=" translate(-247.70261221370617, -256.16599983602464)" d="M 245.048 296.892 C 244.23 295.729 225.197 267.843 241.451 217.711 L 241.451 217.711 C 242.617 214.116 245.94899999999998 211.83 249.534 211.83100000000002 L 249.534 211.83100000000002 C 250.402 211.83100000000002 251.28699999999998 211.96400000000003 252.158 212.247 L 252.158 212.247 C 256.623 213.69500000000002 259.06899999999996 218.489 257.622 222.955 L 257.622 222.955 C 244.21300000000002 264.31100000000004 258.289 286.117 258.992 287.16700000000003 L 258.992 287.16700000000003 C 261.64300000000003 291.00100000000003 260.711 296.26300000000003 256.891 298.951 L 256.891 298.951 C 255.40400000000002 299.99800000000005 253.698 300.50100000000003 252.008 300.50100000000003 L 252.008 300.50100000000003 C 249.335 300.50100000000003 246.704 299.24300000000005 245.048 296.89200000000005" stroke-linecap="round" />
</g>
		<g transform="matrix(1.631576087591631 0 0 -1.631576087591631 -6.785355946648906 -74.09476486579888)"  >
<linearGradient id="SVGID_8_403928" gradientUnits="userSpaceOnUse" gradientTransform="matrix(45.515865 0 0 -45.515865 219.28693 320.01297)"  x1="0" y1="0" x2="1" y2="0">
<stop offset="0%" style="stop-color:rgb(214,0,17);stop-opacity: 1"/>
<stop offset="0.510204%" style="stop-color:rgb(214,0,17);stop-opacity: 1"/>
<stop offset="96.6442%" style="stop-color:rgb(162,0,18);stop-opacity: 1"/>
<stop offset="100%" style="stop-color:rgb(162,0,18);stop-opacity: 1"/>
</linearGradient>
<path style="stroke: none; stroke-width: 1; stroke-dasharray: none; stroke-linecap: butt; stroke-dashoffset: 0; stroke-linejoin: miter; stroke-miterlimit: 4; fill: url(#SVGID_8_403928); fill-rule: nonzero; opacity: 1;"  paint-order="stroke"  transform=" translate(-242.0449699595246, -320.01250000000005)" d="M 229.146 352.356 C 225.094 350.596 223.236 345.883 224.99499999999998 341.831 L 224.99499999999998 341.831 L 232.49199999999996 324.571 C 221.53899999999996 318.66200000000003 216.60599999999997 305.54400000000004 220.73799999999997 292.579 L 220.73799999999997 292.579 C 221.82199999999997 289.178 224.96799999999996 287.00600000000003 228.35799999999998 287.00600000000003 L 228.35799999999998 287.00600000000003 C 229.16199999999998 287.00600000000003 229.98099999999997 287.129 230.789 287.387 L 230.789 287.387 C 234.999 288.728 237.32399999999998 293.228 235.982 297.438 L 235.982 297.438 C 234.466 302.19399999999996 235.31 308.40999999999997 240.745 310.818 L 240.745 310.818 C 244.15200000000002 312.32599999999996 248.477 311.578 251.767 308.914 L 251.767 308.914 C 255.19899999999998 306.133 260.238 306.661 263.019 310.094 L 263.019 310.094 C 265.8 313.527 265.271 318.565 261.839 321.346 L 261.839 321.346 C 261.006 322.021 260.136 322.629 259.245 323.196 L 259.245 323.196 L 263.286 334.90700000000004 C 264.097 337.25600000000003 262.849 339.81800000000004 260.5 340.629 L 260.5 340.629 C 258.146 341.439 255.588 340.192 254.778 337.843 L 254.778 337.843 L 250.951 326.749 C 250.236 326.92600000000004 249.518 327.07800000000003 248.796 327.196 L 248.796 327.196 L 239.672 348.206 C 238.362 351.219 235.41899999999998 353.019 232.328 353.019 L 232.328 353.019 C 231.26500000000001 353.019 230.184 352.806 229.14600000000002 352.356" stroke-linecap="round" />
</g>
		<g transform="matrix(1.631576087591631 0 0 -1.631576087591631 -4.117680030115196 45.634367381894094)"  >
<linearGradient id="SVGID_9_403929" gradientUnits="userSpaceOnUse" gradientTransform="matrix(50.21796 72.301758 72.301758 -50.21796 209.58444 216.55592)"  x1="0" y1="0" x2="1" y2="0">
<stop offset="0%" style="stop-color:rgb(198,0,77);stop-opacity: 1"/>
<stop offset="45.6097%" style="stop-color:rgb(255,65,118);stop-opacity: 1"/>
<stop offset="96.6442%" style="stop-color:rgb(255,113,161);stop-opacity: 1"/>
<stop offset="100%" style="stop-color:rgb(255,113,161);stop-opacity: 1"/>
</linearGradient>
<path style="stroke: none; stroke-width: 1; stroke-dasharray: none; stroke-linecap: butt; stroke-dashoffset: 0; stroke-linejoin: miter; stroke-miterlimit: 4; fill: url(#SVGID_9_403929); fill-rule: nonzero; opacity: 1;"  paint-order="stroke"  transform=" translate(-243.68, -246.63)" d="M 180.74 263.76 C 180.74 258.93 181.69 254.35 183.39000000000001 250.2 L 183.39000000000001 250.2 L 183.39000000000001 250.19 C 183.61 249.65 183.85000000000002 249.12 184.10000000000002 248.59 L 184.10000000000002 248.59 L 184.10000000000002 248.58 C 184.27 248.23000000000002 184.43000000000004 247.88000000000002 184.61 247.54000000000002 L 184.61 247.54000000000002 C 201.24 213.47000000000003 242.75 196.71000000000004 244.04000000000002 196.19000000000003 L 244.04000000000002 196.19000000000003 C 218.39 210.46 227.4 240.29 265 243 L 265 243 C 289.65 244.78 301.43 251.74 306.62 256.34 L 306.62 256.34 C 279 242.74999999999997 219.72 245.71999999999997 202.62 264.38 L 202.62 264.38 C 191.67000000000002 276.33 192.20000000000002 293.67 206.83 297.07 L 206.83 297.07 C 192 294.26 180.74 280.42 180.74 263.76" stroke-linecap="round" />
</g>
		<g transform="matrix(1.631576087591631 0 0 -1.631576087591631 42.595323812943946 -89.92701108120934)"  >
<linearGradient id="SVGID_10_403930" gradientUnits="userSpaceOnUse" gradientTransform="matrix(5.4704213 0 0 -5.4704213 269.57553 329.71625)"  x1="0" y1="0" x2="1" y2="0">
<stop offset="0%" style="stop-color:rgb(111,0,6);stop-opacity: 1"/>
<stop offset="0.510204%" style="stop-color:rgb(111,0,6);stop-opacity: 1"/>
<stop offset="96.6442%" style="stop-color:rgb(162,0,18);stop-opacity: 1"/>
<stop offset="100%" style="stop-color:rgb(162,0,18);stop-opacity: 1"/>
</linearGradient>
<path style="stroke: none; stroke-width: 1; stroke-dasharray: none; stroke-linecap: butt; stroke-dashoffset: 0; stroke-linejoin: miter; stroke-miterlimit: 4; fill: url(#SVGID_10_403930); fill-rule: nonzero; opacity: 1;"  paint-order="stroke"  transform=" translate(-272.31060092527605, -329.7161517854221)" d="M 269.908 331.788 C 269.18600000000004 330.951 269.677 329.345 271.00300000000004 328.2 L 271.00300000000004 328.2 C 272.33000000000004 327.056 273.99100000000004 326.808 274.713 327.645 L 274.713 327.645 C 275.435 328.48199999999997 274.94500000000005 330.08799999999997 273.618 331.23199999999997 L 273.618 331.23199999999997 C 272.82099999999997 331.919 271.904 332.28299999999996 271.142 332.28299999999996 L 271.142 332.28299999999996 C 270.635 332.28299999999996 270.197 332.12199999999996 269.908 331.78799999999995" stroke-linecap="round" />
</g>
		<g transform="matrix(1.631576087591631 0 0 -1.631576087591631 21.996800730601308 -102.61790212831295)"  >
<linearGradient id="SVGID_11_403931" gradientUnits="userSpaceOnUse" gradientTransform="matrix(6.1262469 0 0 -6.1262469 256.62262 337.49466)"  x1="0" y1="0" x2="1" y2="0">
<stop offset="0%" style="stop-color:rgb(111,0,6);stop-opacity: 1"/>
<stop offset="0.510204%" style="stop-color:rgb(111,0,6);stop-opacity: 1"/>
<stop offset="96.6442%" style="stop-color:rgb(162,0,18);stop-opacity: 1"/>
<stop offset="100%" style="stop-color:rgb(162,0,18);stop-opacity: 1"/>
</linearGradient>
<path style="stroke: none; stroke-width: 1; stroke-dasharray: none; stroke-linecap: butt; stroke-dashoffset: 0; stroke-linejoin: miter; stroke-miterlimit: 4; fill: url(#SVGID_11_403931); fill-rule: nonzero; opacity: 1;"  paint-order="stroke"  transform=" translate(-259.68567755271783, -337.4944534800961)" d="M 256.698 338.56 C 256.327 337.519 257.364 336.198 259.01399999999995 335.609 L 259.01399999999995 335.609 C 260.66299999999995 335.02099999999996 262.30199999999996 335.38899999999995 262.67299999999994 336.43 L 262.67299999999994 336.43 C 263.04499999999996 337.47 262.0079999999999 338.79200000000003 260.35699999999997 339.38 L 260.35699999999997 339.38 C 259.82399999999996 339.57 259.292 339.65999999999997 258.804 339.65999999999997 L 258.804 339.65999999999997 C 257.78099999999995 339.65999999999997 256.94899999999996 339.26399999999995 256.698 338.55999999999995" stroke-linecap="round" />
</g>
		<g transform="matrix(1.631576087591631 0 0 -1.631576087591631 -23.648763393412196 -118.5233426830925)"  >
<linearGradient id="SVGID_12_403932" gradientUnits="userSpaceOnUse" gradientTransform="matrix(11.122625 0 0 -11.122625 226.14799 347.24316)"  x1="0" y1="0" x2="1" y2="0">
<stop offset="0%" style="stop-color:rgb(111,0,6);stop-opacity: 1"/>
<stop offset="0.510204%" style="stop-color:rgb(111,0,6);stop-opacity: 1"/>
<stop offset="96.6442%" style="stop-color:rgb(162,0,18);stop-opacity: 1"/>
<stop offset="100%" style="stop-color:rgb(162,0,18);stop-opacity: 1"/>
</linearGradient>
<path style="stroke: none; stroke-width: 1; stroke-dasharray: none; stroke-linecap: butt; stroke-dashoffset: 0; stroke-linejoin: miter; stroke-miterlimit: 4; fill: url(#SVGID_12_403932); fill-rule: nonzero; opacity: 1;"  paint-order="stroke"  transform=" translate(-231.7093150213259, -347.24296639085935)" d="M 230.43 351.013 C 227.441 349.99699999999996 225.591 347.48699999999997 226.299 345.40599999999995 L 226.299 345.40599999999995 C 227.005 343.32399999999996 230.001 342.45899999999995 232.989 343.47399999999993 L 232.989 343.47399999999993 C 235.977 344.48799999999994 237.827 346.9989999999999 237.12 349.0799999999999 L 237.12 349.0799999999999 C 236.614 350.5709999999999 234.935 351.43699999999995 232.925 351.43699999999995 L 232.925 351.43699999999995 C 232.12800000000001 351.43699999999995 231.27800000000002 351.30099999999993 230.43 351.013" stroke-linecap="round" />
</g>
		<g transform="matrix(1.631576087591631 0 0 -1.631576087591631 34.097356369975046 80.48422330133133)"  >
<linearGradient id="SVGID_13_403933" gradientUnits="userSpaceOnUse" gradientTransform="matrix(13.166115 0 0 -13.166115 260.51935 225.27054)"  x1="0" y1="0" x2="1" y2="0">
<stop offset="0%" style="stop-color:rgb(111,0,6);stop-opacity: 1"/>
<stop offset="0.510204%" style="stop-color:rgb(111,0,6);stop-opacity: 1"/>
<stop offset="96.6442%" style="stop-color:rgb(162,0,18);stop-opacity: 1"/>
<stop offset="100%" style="stop-color:rgb(162,0,18);stop-opacity: 1"/>
</linearGradient>
<path style="stroke: none; stroke-width: 1; stroke-dasharray: none; stroke-linecap: butt; stroke-dashoffset: 0; stroke-linejoin: miter; stroke-miterlimit: 4; fill: url(#SVGID_13_403933); fill-rule: nonzero; opacity: 1;"  paint-order="stroke"  transform=" translate(-267.10216013750204, -225.2703734496507)" d="M 265.827 230.153 C 262.261 229.221 259.941 226.28 260.645 223.583 L 260.645 223.583 C 261.34999999999997 220.887 264.81199999999995 219.456 268.378 220.387 L 268.378 220.387 C 271.94399999999996 221.32 274.264 224.261 273.55899999999997 226.958 L 273.55899999999997 226.958 C 273.001 229.095 270.70799999999997 230.438 268.005 230.438 L 268.005 230.438 C 267.299 230.438 266.565 230.34599999999998 265.827 230.153" stroke-linecap="round" />
</g>
		<g transform="matrix(1.631576087591631 0 0 -1.631576087591631 108.61943740714332 -27.18284839466037)"  >
<linearGradient id="SVGID_14_403934" gradientUnits="userSpaceOnUse" gradientTransform="matrix(10.962643 0 0 -10.962643 307.29575 291.25986)"  x1="0" y1="0" x2="1" y2="0">
<stop offset="0%" style="stop-color:rgb(198,0,116);stop-opacity: 1"/>
<stop offset="3.3557900000000003%" style="stop-color:rgb(198,0,116);stop-opacity: 1"/>
<stop offset="100%" style="stop-color:rgb(189,0,148);stop-opacity: 1"/>
</linearGradient>
<path style="stroke: none; stroke-width: 1; stroke-dasharray: none; stroke-linecap: butt; stroke-dashoffset: 0; stroke-linejoin: miter; stroke-miterlimit: 4; fill: url(#SVGID_14_403934); fill-rule: nonzero; opacity: 1;"  paint-order="stroke"  transform=" translate(-312.7770640564301, -291.2599846696331)" d="M 308.926 294.521 C 306.771 291.97700000000003 306.75 288.454 308.877 286.654 L 308.877 286.654 C 311.004 284.853 314.474 285.455 316.628 287.999 L 316.628 287.999 C 318.78299999999996 290.54200000000003 318.804 294.065 316.678 295.86600000000004 L 316.678 295.86600000000004 C 315.849 296.56700000000006 314.818 296.90400000000005 313.739 296.90400000000005 L 313.739 296.90400000000005 C 312.048 296.90400000000005 310.241 296.07500000000005 308.926 294.5210000000001" stroke-linecap="round" />
</g>
		<g transform="matrix(1.631576087591631 0 0 -1.631576087591631 6.293375583651084 91.36120849471075)"  >
<linearGradient id="SVGID_15_403935" gradientUnits="userSpaceOnUse" gradientTransform="matrix(13.166115 0 0 -13.166115 243.47768 218.60387)"  x1="0" y1="0" x2="1" y2="0">
<stop offset="0%" style="stop-color:rgb(198,0,116);stop-opacity: 1"/>
<stop offset="3.3557900000000003%" style="stop-color:rgb(198,0,116);stop-opacity: 1"/>
<stop offset="100%" style="stop-color:rgb(189,0,148);stop-opacity: 1"/>
</linearGradient>
<path style="stroke: none; stroke-width: 1; stroke-dasharray: none; stroke-linecap: butt; stroke-dashoffset: 0; stroke-linejoin: miter; stroke-miterlimit: 4; fill: url(#SVGID_15_403935); fill-rule: nonzero; opacity: 1;"  paint-order="stroke"  transform=" translate(-250.06098075409653, -218.60382245267272)" d="M 248.785 223.486 C 245.219 222.55499999999998 242.899 219.613 243.60399999999998 216.917 L 243.60399999999998 216.917 C 244.309 214.22 247.76999999999998 212.79 251.337 213.721 L 251.337 213.721 C 254.902 214.653 257.223 217.595 256.518 220.291 L 256.518 220.291 C 255.95899999999997 222.429 253.66799999999998 223.771 250.96499999999997 223.771 L 250.96499999999997 223.771 C 250.259 223.771 249.52399999999997 223.67899999999997 248.78499999999997 223.486" stroke-linecap="round" />
</g>
</g>
</g>
</svg>