<svg version="1.1" xmlns="http://www.w3.org/2000/svg" viewBox="0 0 681.86328125 644.193359375"
  width="1363.7265625" height="1288.38671875">
  <!-- svg-source:excalidraw -->

  <defs>
    <style class="style-fonts">
      @font-face {
      font-family: "Virgil";
      src: url("https://excalidraw.com/Virgil.woff2");
      }
      @font-face {
      font-family: "Cascadia";
      src: url("https://excalidraw.com/Cascadia.woff2");
      }
    </style>

  </defs>
  <g stroke-linecap="round" transform="translate(10 81.65625) rotate(0 100.57421875 101.392578125)">
    <path
      d="M7.86 8.16 C7.86 8.16, 7.86 8.16, 7.86 8.16 M7.86 8.16 C7.86 8.16, 7.86 8.16, 7.86 8.16 M3.66 19.09 C10.8 12.39, 13.97 7.89, 18.1 2.48 M3.66 19.09 C7.29 14.1, 13.59 8.5, 18.1 2.48 M2.75 26.24 C9.64 17.29, 18.03 6.48, 24.4 1.33 M2.75 26.24 C8.17 20.75, 12.89 14.13, 24.4 1.33 M2.48 32.64 C14.03 18.34, 24.71 5.85, 30.7 0.18 M2.48 32.64 C7.7 24.63, 14.11 17.56, 30.7 0.18 M2.88 38.28 C9.34 28.31, 18.05 20.21, 34.37 2.05 M2.88 38.28 C11.22 28.45, 20.69 17.07, 34.37 2.05 M2.62 44.68 C11.06 36.69, 18.25 26, 39.36 2.41 M2.62 44.68 C10.64 35.76, 18.5 26.81, 39.36 2.41 M2.36 51.07 C19.22 29.67, 35.51 11.36, 45 2.02 M2.36 51.07 C13.62 38.27, 25.03 24.13, 45 2.02 M2.75 56.72 C15.49 43.41, 27.83 26.34, 49.99 2.38 M2.75 56.72 C19.82 36.5, 38.83 15.49, 49.99 2.38 M2.49 63.11 C13.87 47.43, 26.47 35.97, 55.63 1.98 M2.49 63.11 C14.8 50.52, 25.99 36.97, 55.63 1.98 M2.23 69.51 C18.12 49.12, 38.02 33.4, 60.62 2.34 M2.23 69.51 C21.86 47.58, 40.1 26.65, 60.62 2.34 M2.62 75.16 C27.84 47.97, 49.69 20.23, 66.26 1.95 M2.62 75.16 C15.35 60.74, 27.96 44.49, 66.26 1.95 M2.36 81.55 C26.71 53.98, 49.17 26.35, 71.25 2.31 M2.36 81.55 C16.91 64.83, 31.18 48.68, 71.25 2.31 M2.76 87.2 C17.51 68.39, 32.23 51.92, 76.89 1.91 M2.76 87.2 C24.71 61.89, 45.43 37.74, 76.89 1.91 M2.49 93.59 C21.16 76.17, 37.37 54.07, 81.88 2.27 M2.49 93.59 C24.96 67.18, 48.44 40.94, 81.88 2.27 M2.23 99.99 C28.87 70.84, 54.68 41.35, 87.52 1.88 M2.23 99.99 C34.09 65.41, 65.29 29.33, 87.52 1.88 M2.63 105.64 C20.65 83.35, 40.69 57.84, 92.51 2.24 M2.63 105.64 C26.26 76.91, 51.27 49.85, 92.51 2.24 M2.37 112.03 C38.41 68.17, 77.7 23.64, 98.15 1.85 M2.37 112.03 C27.17 85.32, 49.92 56.93, 98.15 1.85 M2.1 118.43 C41.48 72.98, 81.46 24.39, 103.14 2.21 M2.1 118.43 C33.35 83.76, 63.42 47.71, 103.14 2.21 M2.5 124.07 C24.83 98, 47.88 73.6, 108.78 1.81 M2.5 124.07 C28.77 95.03, 55.83 64.47, 108.78 1.81 M2.24 130.47 C40.86 86.96, 76.87 45.92, 113.77 2.17 M2.24 130.47 C44.55 81.67, 86.27 33.52, 113.77 2.17 M1.98 136.87 C31.14 102.92, 56.77 69.75, 119.41 1.78 M1.98 136.87 C45.49 86.63, 89.35 37.04, 119.41 1.78 M2.37 142.51 C39.52 102.52, 74.57 61.19, 124.4 2.14 M2.37 142.51 C45.9 91.92, 87.34 43.16, 124.4 2.14 M2.11 148.91 C46.94 96.86, 91.22 42.94, 130.04 1.74 M2.11 148.91 C41.85 100.59, 84.15 53.37, 130.04 1.74 M2.5 154.55 C49.29 103.59, 92.14 51.79, 135.03 2.1 M2.5 154.55 C40.54 110.73, 77.51 66.28, 135.03 2.1 M2.24 160.95 C32.4 126.06, 63.33 93.71, 140.67 1.71 M2.24 160.95 C47.22 111.25, 91.22 60.2, 140.67 1.71 M1.98 167.35 C55.35 107.94, 109.25 45.75, 145.66 2.07 M1.98 167.35 C55.61 106.64, 109.62 45.43, 145.66 2.07 M2.38 172.99 C36.36 136.08, 66.12 97.86, 150.65 2.43 M2.38 172.99 C37.51 132.23, 70.96 92.94, 150.65 2.43 M3.43 177.88 C50.89 121.26, 99.66 67.23, 156.29 2.03 M3.43 177.88 C57.46 115.88, 110.89 55.49, 156.29 2.03 M2.51 185.03 C64.62 111.76, 129.04 40.01, 161.28 2.39 M2.51 185.03 C50.67 128.2, 99.07 71.4, 161.28 2.39 M4.87 188.41 C59.25 128.79, 111.18 66.64, 166.92 2 M4.87 188.41 C52.58 133.53, 99.69 78.53, 166.92 2 M6.58 192.55 C55.33 135.44, 103.26 80, 171.91 2.36 M6.58 192.55 C41.23 152.46, 73.69 114.48, 171.91 2.36 M8.94 195.92 C71.58 125.53, 133.18 52.1, 176.89 2.72 M8.94 195.92 C54.38 144.59, 97.9 93, 176.89 2.72 M12.62 197.79 C62.1 138.84, 114.34 78.93, 181.22 3.83 M12.62 197.79 C72.64 129.32, 131.95 60.68, 181.22 3.83 M16.29 199.66 C62.39 146.68, 110.48 92.87, 186.21 4.19 M16.29 199.66 C53.8 156.78, 91.22 112.62, 186.21 4.19 M19.31 202.29 C75.96 140.17, 128.96 78.46, 189.23 6.82 M19.31 202.29 C56.93 157.2, 95.66 113.35, 189.23 6.82 M24.3 202.65 C65.21 154.53, 105.8 107.32, 193.56 7.93 M24.3 202.65 C81.36 137.59, 136.59 72.6, 193.56 7.93 M28.63 203.76 C74.88 149.97, 123.24 96.24, 195.27 12.07 M28.63 203.76 C68.37 156, 109.61 109.59, 195.27 12.07 M33.61 204.12 C95.38 135.02, 155.2 65.31, 197.63 15.45 M33.61 204.12 C71.26 159.66, 111.5 114.21, 197.63 15.45 M38.6 204.48 C76.35 162.23, 114.42 118.59, 199.99 18.82 M38.6 204.48 C83.86 154.66, 128.94 103.28, 199.99 18.82 M44.25 204.09 C89.87 153.08, 135.42 97.29, 201.04 23.71 M44.25 204.09 C76.91 167.28, 110.2 129.32, 201.04 23.71 M49.23 204.45 C92.84 153.94, 136.66 105.62, 201.44 29.36 M49.23 204.45 C100.48 145.91, 151.9 87.26, 201.44 29.36 M54.88 204.05 C111.42 139.07, 163.02 78.52, 203.14 33.49 M54.88 204.05 C112.89 137.22, 171.74 71.76, 203.14 33.49 M59.86 204.41 C89.36 167.53, 123.48 132.47, 202.88 39.89 M59.86 204.41 C102.02 157.06, 142.25 109.91, 202.88 39.89 M65.51 204.02 C106.82 157.72, 148.06 110.67, 203.28 45.53 M65.51 204.02 C112.83 152.27, 158.6 98.82, 203.28 45.53 M70.49 204.38 C110.82 158.94, 151.36 111.44, 203.02 51.93 M70.49 204.38 C117.69 149.5, 164.11 96.42, 203.02 51.93 M76.14 203.98 C110.2 162.61, 144.4 123.35, 202.75 58.33 M76.14 203.98 C113.23 160.65, 150.34 118.26, 202.75 58.33 M81.12 204.34 C113.89 163.55, 149.65 124.66, 203.15 63.97 M81.12 204.34 C130.29 150.7, 176.89 95.03, 203.15 63.97 M86.77 203.95 C119.16 167.11, 150.43 133.87, 202.89 70.37 M86.77 203.95 C125.14 160.22, 163.67 115.95, 202.89 70.37 M91.75 204.31 C128.87 157.9, 168.1 114.7, 203.28 76.01 M91.75 204.31 C113.04 178.03, 136.98 150.59, 203.28 76.01 M97.4 203.92 C129.64 163.56, 165.37 127.03, 203.02 82.41 M97.4 203.92 C137.06 159.27, 176.43 113.82, 203.02 82.41 M102.38 204.28 C127.42 178.92, 150.8 150.96, 202.76 88.81 M102.38 204.28 C129.39 171.86, 157.8 139.47, 202.76 88.81 M108.03 203.88 C130.55 178.72, 151.55 155.25, 203.15 94.45 M108.03 203.88 C144.14 163.39, 178.9 123.02, 203.15 94.45 M113.01 204.24 C136.26 175.3, 162.8 146.4, 202.89 100.85 M113.01 204.24 C147.94 164.32, 183.62 123.71, 202.89 100.85 M118.66 203.85 C146.77 173.4, 172.21 140.87, 203.29 106.49 M118.66 203.85 C151.33 168.56, 183.26 131.43, 203.29 106.49 M123.64 204.21 C150.85 171.79, 178.08 141.81, 203.03 112.89 M123.64 204.21 C141.31 185.14, 157.96 166.39, 203.03 112.89 M129.29 203.81 C146.46 182.75, 168.1 159.21, 202.76 119.28 M129.29 203.81 C146.16 183.42, 164.79 163.59, 202.76 119.28 M134.27 204.17 C156.24 179.4, 180.69 150.66, 203.16 124.93 M134.27 204.17 C159.56 176.24, 183.19 149.35, 203.16 124.93 M139.26 204.53 C165 176.8, 185.64 149.33, 202.9 131.33 M139.26 204.53 C156.11 184, 175.13 165.19, 202.9 131.33 M144.9 204.14 C163.01 184.31, 176.88 167.12, 203.29 136.97 M144.9 204.14 C158.34 187.42, 174.11 171.36, 203.29 136.97 M149.89 204.5 C159.33 193.32, 174.45 177.34, 203.03 143.37 M149.89 204.5 C162.36 189.58, 175.92 173.99, 203.03 143.37 M155.53 204.1 C163.98 189.91, 176.23 177.5, 202.77 149.76 M155.53 204.1 C170.66 187.29, 186.58 170.12, 202.77 149.76 M160.52 204.46 C177.65 186.04, 190.89 167.84, 203.16 155.41 M160.52 204.46 C177.08 185.82, 194.04 166.9, 203.16 155.41 M166.16 204.07 C178.16 190.75, 190.48 174.82, 202.9 161.81 M166.16 204.07 C173.51 194.92, 181.66 187.18, 202.9 161.81 M171.15 204.43 C177.22 195.16, 184.64 189.36, 203.3 167.45 M171.15 204.43 C182.28 192.04, 192.23 178.95, 203.3 167.45 M177.45 203.28 C182.07 193.87, 190.85 186.14, 203.69 173.09 M177.45 203.28 C185.28 195.02, 193.19 185.25, 203.69 173.09 M184.4 201.38 C190 197.81, 193.76 190.37, 202.77 180.24 M184.4 201.38 C189.48 197.28, 193.55 192.26, 202.77 180.24 M8.13 194.9 C8.13 194.9, 8.13 194.9, 8.13 194.9 M8.13 194.9 C8.13 194.9, 8.13 194.9, 8.13 194.9 M19.06 199.1 C17.02 196.75, 13.5 194.3, 2.45 184.66 M19.06 199.1 C12.22 193.05, 7.42 187.96, 2.45 184.66 M26.96 200.67 C18.36 190.9, 7.18 184.03, 1.3 178.36 M26.96 200.67 C20.31 194.78, 12.57 186.57, 1.3 178.36 M33.36 200.93 C22.3 193.01, 15.38 183.93, 0.15 172.06 M33.36 200.93 C25.26 193.09, 16.99 187.26, 0.15 172.06 M39.76 201.19 C23.95 186.75, 10.82 176.62, 2.02 168.39 M39.76 201.19 C31.36 194.16, 21.98 186.9, 2.02 168.39 M45.4 200.8 C30.5 187.81, 17.87 174.08, 2.38 163.4 M45.4 200.8 C35.32 192.22, 23.48 181.39, 2.38 163.4 M51.8 201.06 C38.4 187.32, 23.28 176.51, 1.99 157.76 M51.8 201.06 C39.76 190.24, 27.94 179.93, 1.99 157.76 M58.2 201.32 C42.53 184.37, 21.72 169.2, 2.35 152.77 M58.2 201.32 C41.2 186.02, 23.05 171.31, 2.35 152.77 M63.84 200.93 C44.59 183.71, 25.57 166.73, 1.95 147.13 M63.84 200.93 C50.46 189.15, 38.75 178.3, 1.95 147.13 M70.24 201.19 C45.36 180.86, 20.42 158.24, 2.31 142.14 M70.24 201.19 C44.76 180.24, 19.72 156.98, 2.31 142.14 M75.88 200.79 C53 180.86, 35.47 165.12, 1.92 136.5 M75.88 200.79 C55.09 181.08, 32.78 163.48, 1.92 136.5 M82.28 201.05 C56.67 180.1, 32.98 157.23, 2.28 131.51 M82.28 201.05 C62.15 182.8, 41.79 164.2, 2.28 131.51 M88.68 201.32 C71.1 184.8, 52.32 169.79, 1.88 125.87 M88.68 201.32 C59.18 176.45, 28.68 149.85, 1.88 125.87 M94.32 200.92 C63.82 172.33, 31.63 146.55, 2.25 120.88 M94.32 200.92 C59.08 168.94, 24.14 140.1, 2.25 120.88 M100.72 201.18 C69.02 173.87, 41.99 147.8, 2.61 115.89 M100.72 201.18 C67.51 173.71, 36.14 145.3, 2.61 115.89 M106.36 200.79 C73.81 171.15, 41.73 146.16, 2.21 110.25 M106.36 200.79 C77.85 174.36, 49.11 150.63, 2.21 110.25 M112.76 201.05 C76.24 168.37, 39.44 138.6, 2.57 105.26 M112.76 201.05 C79.22 171.84, 44.49 141.4, 2.57 105.26 M119.16 201.31 C87.51 173.3, 57.17 145.76, 2.18 99.62 M119.16 201.31 C90.31 175.77, 62.17 150.41, 2.18 99.62 M124.8 200.92 C97.1 177.93, 68.86 153.18, 2.54 94.63 M124.8 200.92 C93.27 174.49, 62.08 145.78, 2.54 94.63 M131.2 201.18 C88.82 163.84, 44.48 124.42, 2.14 88.99 M131.2 201.18 C89.63 164.25, 45.3 127.54, 2.14 88.99 M136.84 200.78 C94.34 162.04, 55.24 126.44, 2.5 84 M136.84 200.78 C108.36 176.79, 82.51 152.94, 2.5 84 M143.24 201.04 C112.06 174.12, 78.89 144.84, 2.11 78.36 M143.24 201.04 C93.21 158.47, 45.12 115.64, 2.11 78.36 M149.64 201.31 C109.02 163.05, 64.33 127.46, 2.47 73.37 M149.64 201.31 C102.21 160.99, 54.43 120.5, 2.47 73.37 M155.28 200.91 C111.7 163.31, 67.93 123.5, 2.07 67.73 M155.28 200.91 C93.55 147.48, 33.99 93.39, 2.07 67.73 M161.68 201.17 C126.49 171.08, 89.59 139.39, 2.43 62.74 M161.68 201.17 C122.21 167.38, 81.32 131.9, 2.43 62.74 M169.58 202.75 C120.97 161.88, 75.42 120.17, 2.79 57.76 M169.58 202.75 C133.86 172.25, 99.53 141.97, 2.79 57.76 M174.47 201.7 C104.56 142.16, 38.97 81.72, 2.4 52.11 M174.47 201.7 C113.1 147.23, 50.16 94.9, 2.4 52.11 M180.12 201.3 C139.22 166.19, 97.65 129.42, 2.76 47.13 M180.12 201.3 C111.78 141.2, 43.93 81.62, 2.76 47.13 M184.25 199.59 C110.5 137.34, 40.77 74.71, 2.36 41.48 M184.25 199.59 C133.41 154.56, 82.73 109.81, 2.36 41.48 M187.63 197.23 C123.83 141.34, 60.74 86.03, 2.72 36.5 M187.63 197.23 C123.09 139.54, 57.96 83.51, 2.72 36.5 M191.76 195.52 C143.46 155.68, 96 114.46, 2.33 30.85 M191.76 195.52 C119.67 132.89, 49.16 70.13, 2.33 30.85 M195.14 193.16 C137.41 144.88, 76.57 93.95, 0.43 23.9 M195.14 193.16 C155.11 157.98, 115.79 123.8, 0.43 23.9 M197.01 189.49 C133.33 133.25, 67.19 75.63, 1.54 19.57 M197.01 189.49 C142.54 141.91, 87.6 93.74, 1.54 19.57 M198.88 185.81 C129.2 125.02, 60.37 66.26, 3.41 15.89 M198.88 185.81 C147.8 142.13, 96.35 96.54, 3.41 15.89 M201.5 182.79 C160.58 146.89, 122.77 114.52, 6.03 12.87 M201.5 182.79 C131.55 123.06, 61.83 62.93, 6.03 12.87 M201.86 177.81 C156.55 136.55, 110.5 96.72, 7.9 9.2 M201.86 177.81 C137.68 122.37, 72.83 67.06, 7.9 9.2 M202.22 172.82 C130.52 108.04, 53.69 44.87, 9.77 5.52 M202.22 172.82 C156.72 134.06, 113.09 95.57, 9.77 5.52 M203.34 168.49 C155 126.06, 104.18 81.02, 13.91 3.82 M203.34 168.49 C163.2 134.48, 124.26 99.16, 13.91 3.82 M202.94 162.85 C162.96 127.72, 123.44 93.65, 17.29 1.45 M202.94 162.85 C154.37 122.85, 107.53 81.14, 17.29 1.45 M203.3 157.86 C164.8 122.21, 125.3 87.3, 20.66 -0.91 M203.3 157.86 C165.36 125.18, 128.72 92, 20.66 -0.91 M202.91 152.22 C142.86 99.67, 81.29 48.74, 25.55 -1.96 M202.91 152.22 C154.79 111.66, 108.17 70.03, 25.55 -1.96 M203.27 147.23 C159.01 110.17, 114.69 71.94, 32.71 -1.04 M203.27 147.23 C163.05 112.94, 123.93 79.2, 32.71 -1.04 M202.88 141.59 C158.5 103.1, 114.38 68.11, 39.1 -0.78 M202.88 141.59 C167.29 113.05, 132.55 83.12, 39.1 -0.78 M203.24 136.6 C166.54 103.88, 129.71 75.16, 44.75 -1.17 M203.24 136.6 C161.12 97.91, 117.7 61.89, 44.75 -1.17 M203.6 131.61 C142.05 76.93, 83.95 25.82, 51.14 -0.91 M203.6 131.61 C156.49 90.01, 108.78 48.24, 51.14 -0.91 M203.2 125.97 C155.34 83.43, 102.72 38.4, 57.54 -0.65 M203.2 125.97 C155.45 86, 106.84 43.58, 57.54 -0.65 M203.56 120.98 C148.47 72.8, 95.55 25.59, 63.18 -1.05 M203.56 120.98 C159.1 83.33, 112.8 42.8, 63.18 -1.05 M203.17 115.34 C162.21 81.69, 124.1 46.27, 69.58 -0.78 M203.17 115.34 C161.2 79.12, 119.95 42.62, 69.58 -0.78 M203.53 110.35 C153.17 69.66, 104.27 26.92, 75.23 -1.18 M203.53 110.35 C168.14 82.16, 136.13 51.19, 75.23 -1.18 M203.13 104.71 C158.86 68.92, 115.47 31.89, 81.62 -0.92 M203.13 104.71 C164.13 72.04, 126.93 38.55, 81.62 -0.92 M203.49 99.72 C156.66 60.64, 113.4 19.86, 88.02 -0.66 M203.49 99.72 C169.27 71.95, 137.92 42.05, 88.02 -0.66 M203.1 94.08 C172.41 68.27, 145.03 44.81, 93.66 -1.05 M203.1 94.08 C167.54 62.51, 134.41 33.82, 93.66 -1.05 M203.46 89.09 C166.89 58.42, 132.82 26.43, 100.06 -0.79 M203.46 89.09 C163.79 53.72, 123.34 18.05, 100.06 -0.79 M203.06 83.45 C167.28 56, 134.86 23.22, 105.71 -1.18 M203.06 83.45 C171.62 54.76, 139.27 27.74, 105.71 -1.18 M203.42 78.46 C170.41 47.37, 136.36 18.8, 112.1 -0.92 M203.42 78.46 C170.98 51.44, 140.89 23.99, 112.1 -0.92 M203.03 72.82 C185.99 57.93, 167.54 41.16, 118.5 -0.66 M203.03 72.82 C183.26 54.31, 163.14 36.83, 118.5 -0.66 M203.39 67.83 C175.7 41.78, 145.34 18.89, 124.14 -1.06 M203.39 67.83 C176.89 44.14, 149.73 20.93, 124.14 -1.06 M202.99 62.19 C186.05 49, 172.98 34.13, 130.54 -0.79 M202.99 62.19 C178.97 41.65, 155.86 20.76, 130.54 -0.79 M203.35 57.2 C189.96 46.99, 176.94 31.78, 136.18 -1.19 M203.35 57.2 C181.93 36.83, 159.63 17.58, 136.18 -1.19 M202.96 51.56 C189 39.27, 176.65 27.69, 142.58 -0.93 M202.96 51.56 C180.74 31.8, 157.34 11.38, 142.58 -0.93 M203.32 46.57 C186.15 31.73, 165.53 15.85, 148.98 -0.67 M203.32 46.57 C184.91 30.67, 167.49 15.19, 148.98 -0.67 M202.92 40.93 C191.56 32.17, 180.28 21.95, 154.62 -1.06 M202.92 40.93 C192.3 32.99, 182.3 23.22, 154.62 -1.06 M203.28 35.94 C193.73 27.99, 184.7 21.31, 161.02 -0.8 M203.28 35.94 C192.77 26.32, 181.3 16.26, 161.02 -0.8 M202.89 30.3 C194.67 24.36, 188.65 18.27, 166.66 -1.19 M202.89 30.3 C192.3 21.7, 182.31 12.62, 166.66 -1.19 M201.74 24 C197.24 19.92, 190.08 14.61, 171.55 -2.24 M201.74 24 C191.01 15.47, 181.84 4.81, 171.55 -2.24 M199.84 17.04 C191.84 11.28, 183.6 0.96, 178.7 -1.33 M199.84 17.04 C194.52 11.3, 187.19 7.24, 178.7 -1.33"
      stroke="#a5d8ff" stroke-width="0.5" fill="none"></path>
    <path
      d="M32 0 M32 0 C74.26 -0.71, 117.97 -0.42, 169.15 0 M32 0 C76.77 -0.2, 120.37 -0.46, 169.15 0 M169.15 0 C191.37 0.14, 200.97 11.57, 201.15 32 M169.15 0 C189.23 -2.21, 199.75 12.7, 201.15 32 M201.15 32 C200.5 76.34, 202 117.16, 201.15 170.79 M201.15 32 C201.31 64.52, 201.5 98.52, 201.15 170.79 M201.15 170.79 C200.88 191.26, 189.05 203.93, 169.15 202.79 M201.15 170.79 C200.17 192.05, 188.24 204.23, 169.15 202.79 M169.15 202.79 C140.2 205.14, 113.58 203.99, 32 202.79 M169.15 202.79 C139.93 202.62, 108.98 202.85, 32 202.79 M32 202.79 C10.99 202.15, -1.83 191.75, 0 170.79 M32 202.79 C10.38 201.84, 1.14 190.94, 0 170.79 M0 170.79 C3.23 127.28, 1.21 78.69, 0 32 M0 170.79 C0.48 116.5, 1.74 61.16, 0 32 M0 32 C1.57 12.01, 11.57 -1.67, 32 0 M0 32 C-2.11 11.16, 8.46 1.61, 32 0"
      stroke="#1e1e1e" stroke-width="1" fill="none"></path>
  </g>
  <g transform="translate(86.1328125 166.20703125) rotate(0 27.03997039794922 12.5)">
    <text x="0" y="0" font-family="Virgil, Segoe UI Emoji" font-size="20px" fill="#1e1e1e"
      text-anchor="start" style="white-space: pre;" direction="ltr"
      dominant-baseline="text-before-edge">Store</text>
  </g>
  <g stroke-linecap="round"
    transform="translate(239.35546875 431.408203125) rotate(0 100.57421875 101.392578125)">
    <path
      d="M7.86 8.16 C7.86 8.16, 7.86 8.16, 7.86 8.16 M7.86 8.16 C7.86 8.16, 7.86 8.16, 7.86 8.16 M3.66 19.09 C7.57 13.74, 8.03 11.24, 18.1 2.48 M3.66 19.09 C8.76 14.26, 11.86 8.88, 18.1 2.48 M2.75 26.24 C8.43 16.73, 15.4 9.67, 24.4 1.33 M2.75 26.24 C11.28 16.94, 18.42 7.46, 24.4 1.33 M2.48 32.64 C13.19 22.56, 23.1 9.44, 30.7 0.18 M2.48 32.64 C11 24.21, 18 15.1, 30.7 0.18 M2.88 38.28 C7.78 30.39, 16.04 21.99, 34.37 2.05 M2.88 38.28 C11.36 28.15, 18.34 19.06, 34.37 2.05 M2.62 44.68 C14.81 30.66, 24.71 19.43, 39.36 2.41 M2.62 44.68 C16.12 29.88, 30.42 14.73, 39.36 2.41 M2.36 51.07 C14.07 41.3, 21.53 29.59, 45 2.02 M2.36 51.07 C14.01 37.41, 26.92 23.4, 45 2.02 M2.75 56.72 C15.35 41.64, 24.88 31.52, 49.99 2.38 M2.75 56.72 C16.84 38.44, 32.05 21.75, 49.99 2.38 M2.49 63.11 C21.05 44.95, 35.83 21.99, 55.63 1.98 M2.49 63.11 C23.14 40.42, 42.53 17.76, 55.63 1.98 M2.23 69.51 C17.51 48.34, 36.52 31.47, 60.62 2.34 M2.23 69.51 C22.78 46.24, 43.11 22.45, 60.62 2.34 M2.62 75.16 C20.82 54.49, 35.99 33.23, 66.26 1.95 M2.62 75.16 C23.04 52.87, 42.91 30.05, 66.26 1.95 M2.36 81.55 C26.62 53.93, 52.1 24.27, 71.25 2.31 M2.36 81.55 C29.35 50.4, 55.34 20.14, 71.25 2.31 M2.76 87.2 C25.44 65.83, 43.57 40.59, 76.89 1.91 M2.76 87.2 C21.44 66.01, 41.07 42.79, 76.89 1.91 M2.49 93.59 C28.41 65.12, 51.04 36.29, 81.88 2.27 M2.49 93.59 C22.46 70.29, 40.68 47.91, 81.88 2.27 M2.23 99.99 C33.65 64.55, 65.24 28.99, 87.52 1.88 M2.23 99.99 C28.57 67.49, 57.37 36.2, 87.52 1.88 M2.63 105.64 C21.21 85.26, 41.66 61.11, 92.51 2.24 M2.63 105.64 C24.43 82.38, 46.6 55.78, 92.51 2.24 M2.37 112.03 C43.52 67.93, 80.46 24.51, 98.15 1.85 M2.37 112.03 C39.3 71.39, 73.98 30.21, 98.15 1.85 M2.1 118.43 C34.27 84.79, 64.6 46.35, 103.14 2.21 M2.1 118.43 C22.29 95.61, 43.91 72.53, 103.14 2.21 M2.5 124.07 C31.57 91.16, 61.89 56.16, 108.78 1.81 M2.5 124.07 C43.05 76.59, 83.03 29.2, 108.78 1.81 M2.24 130.47 C26.5 105.3, 46.71 75.92, 113.77 2.17 M2.24 130.47 C28.99 101.04, 53.4 71.91, 113.77 2.17 M1.98 136.87 C36.39 97.08, 69.51 57.28, 119.41 1.78 M1.98 136.87 C42.69 89.12, 82.64 42.37, 119.41 1.78 M2.37 142.51 C39.17 101.24, 74.06 57.1, 124.4 2.14 M2.37 142.51 C44.23 93.55, 88.08 42.35, 124.4 2.14 M2.11 148.91 C30.51 117.9, 55.05 89.07, 130.04 1.74 M2.11 148.91 C45.2 101.35, 85.38 55.22, 130.04 1.74 M2.5 154.55 C45.31 103.27, 89.44 55.01, 135.03 2.1 M2.5 154.55 C39.07 112.99, 74.72 71.61, 135.03 2.1 M2.24 160.95 C51.35 103.93, 102.45 44.95, 140.67 1.71 M2.24 160.95 C57.29 98.75, 112.76 34.71, 140.67 1.71 M1.98 167.35 C41.23 121.47, 81.58 77.09, 145.66 2.07 M1.98 167.35 C33.78 131.46, 62.46 96.82, 145.66 2.07 M2.38 172.99 C57.97 108.69, 112.93 44.07, 150.65 2.43 M2.38 172.99 C50.95 114.61, 101.07 58.03, 150.65 2.43 M3.43 177.88 C37.41 139.43, 68.4 102.31, 156.29 2.03 M3.43 177.88 C43.42 132.37, 83.73 87.21, 156.29 2.03 M2.51 185.03 C43.24 139.49, 82.08 95.43, 161.28 2.39 M2.51 185.03 C51.6 129.38, 101.81 70.73, 161.28 2.39 M4.87 188.41 C49.9 135.54, 96.96 82, 166.92 2 M4.87 188.41 C46.45 142.13, 86.92 95.79, 166.92 2 M6.58 192.55 C46.4 148.5, 83.5 104.28, 171.91 2.36 M6.58 192.55 C40.1 153.01, 74.08 114.49, 171.91 2.36 M8.94 195.92 C62.27 135.71, 115.02 74.93, 176.89 2.72 M8.94 195.92 C52.89 146.07, 96.96 96.26, 176.89 2.72 M12.62 197.79 C78.37 123.09, 144.1 47.22, 181.22 3.83 M12.62 197.79 C58.92 145.61, 103.19 94.73, 181.22 3.83 M16.29 199.66 C79.64 124.4, 144.71 47.16, 186.21 4.19 M16.29 199.66 C73.55 136.36, 129.31 71.98, 186.21 4.19 M19.31 202.29 C57.82 154.11, 98.93 107.64, 189.23 6.82 M19.31 202.29 C66.07 148.24, 113.42 95.08, 189.23 6.82 M24.3 202.65 C75.31 145.68, 125.28 85.27, 193.56 7.93 M24.3 202.65 C80.89 137.14, 136.66 73.07, 193.56 7.93 M28.63 203.76 C77.43 151.82, 124.59 96.32, 195.27 12.07 M28.63 203.76 C93.53 130.62, 157.54 55.56, 195.27 12.07 M33.61 204.12 C79.48 151.82, 125.63 100.6, 197.63 15.45 M33.61 204.12 C79.44 149.78, 127.93 94.18, 197.63 15.45 M38.6 204.48 C83.72 150.99, 131.55 96.32, 199.99 18.82 M38.6 204.48 C83.09 153.82, 126.96 103.92, 199.99 18.82 M44.25 204.09 C86.81 152.88, 128.07 103.88, 201.04 23.71 M44.25 204.09 C88.94 152.23, 131.43 102.56, 201.04 23.71 M49.23 204.45 C84.41 163.7, 118.94 123.1, 201.44 29.36 M49.23 204.45 C110.11 135.95, 168.2 67.58, 201.44 29.36 M54.88 204.05 C95.26 156.78, 132.88 111.13, 203.14 33.49 M54.88 204.05 C105.61 147.75, 154.16 91.78, 203.14 33.49 M59.86 204.41 C105.23 152.91, 151.41 98.73, 202.88 39.89 M59.86 204.41 C103.87 153.76, 147.12 105.18, 202.88 39.89 M65.51 204.02 C116.26 145.31, 166.01 87.85, 203.28 45.53 M65.51 204.02 C107.89 155.43, 150.83 107.59, 203.28 45.53 M70.49 204.38 C119.37 149.62, 168.5 92.76, 203.02 51.93 M70.49 204.38 C118.95 148.47, 167 92.59, 203.02 51.93 M76.14 203.98 C114.24 162.16, 152.23 115.94, 202.75 58.33 M76.14 203.98 C104.98 170.92, 136.37 135.52, 202.75 58.33 M81.12 204.34 C116.23 167.94, 147.99 129.35, 203.15 63.97 M81.12 204.34 C110.22 169.92, 140.34 135.84, 203.15 63.97 M86.77 203.95 C123.63 158.15, 163.7 115.04, 202.89 70.37 M86.77 203.95 C130.74 152.12, 175.52 100.88, 202.89 70.37 M91.75 204.31 C121.39 169.17, 151.91 136.41, 203.28 76.01 M91.75 204.31 C133.24 154.71, 175.38 106.56, 203.28 76.01 M97.4 203.92 C134.92 161.53, 170.29 120.57, 203.02 82.41 M97.4 203.92 C136.84 159.23, 175.93 115.08, 203.02 82.41 M102.38 204.28 C131.82 170.59, 162.68 135.48, 202.76 88.81 M102.38 204.28 C138.18 163.66, 171.79 125.95, 202.76 88.81 M108.03 203.88 C140.21 167.66, 173.78 130.19, 203.15 94.45 M108.03 203.88 C132.64 175.6, 157.31 147.29, 203.15 94.45 M113.01 204.24 C140.38 174.23, 164.84 146.48, 202.89 100.85 M113.01 204.24 C138.38 175.13, 161.57 148.56, 202.89 100.85 M118.66 203.85 C151.57 168.74, 182.65 131.41, 203.29 106.49 M118.66 203.85 C141.8 180.55, 162.98 155.86, 203.29 106.49 M123.64 204.21 C142.04 184.61, 159.24 164.2, 203.03 112.89 M123.64 204.21 C141.06 183.59, 158.81 163.16, 203.03 112.89 M129.29 203.81 C159.31 167.9, 189.29 134.11, 202.76 119.28 M129.29 203.81 C146.11 184.73, 164.66 163.49, 202.76 119.28 M134.27 204.17 C151.92 185.51, 168.71 167, 203.16 124.93 M134.27 204.17 C152.03 184.51, 167.69 164.34, 203.16 124.93 M139.26 204.53 C152 188.4, 164.84 173.08, 202.9 131.33 M139.26 204.53 C151.92 189.08, 165.95 175.45, 202.9 131.33 M144.9 204.14 C157.75 190.7, 171.8 171.94, 203.29 136.97 M144.9 204.14 C161.3 184.56, 178.09 165.58, 203.29 136.97 M149.89 204.5 C168.82 182.94, 185.82 162.9, 203.03 143.37 M149.89 204.5 C161.81 190.51, 173.4 176.11, 203.03 143.37 M155.53 204.1 C174.67 181.7, 191.89 162.78, 202.77 149.76 M155.53 204.1 C170.18 187.4, 182.59 171.63, 202.77 149.76 M160.52 204.46 C173.25 189.05, 187.86 173.52, 203.16 155.41 M160.52 204.46 C173.71 189.92, 186.31 175.07, 203.16 155.41 M166.16 204.07 C179.68 188.29, 195.18 170.77, 202.9 161.81 M166.16 204.07 C177.83 189.91, 189.65 177.48, 202.9 161.81 M171.15 204.43 C185.04 191.5, 194.04 176.62, 203.3 167.45 M171.15 204.43 C180.61 193.36, 189.15 181.67, 203.3 167.45 M177.45 203.28 C185.5 193.7, 194.83 182.06, 203.69 173.09 M177.45 203.28 C188 190.71, 197.31 179.27, 203.69 173.09 M184.4 201.38 C191.12 196.58, 194.86 188.85, 202.77 180.24 M184.4 201.38 C187.94 197.32, 190.94 192.41, 202.77 180.24 M8.13 194.9 C8.13 194.9, 8.13 194.9, 8.13 194.9 M8.13 194.9 C8.13 194.9, 8.13 194.9, 8.13 194.9 M19.06 199.1 C15.45 194.17, 10.45 191.31, 2.45 184.66 M19.06 199.1 C13.32 195.37, 9.74 190.85, 2.45 184.66 M26.96 200.67 C19.91 194.03, 16.35 192.07, 1.3 178.36 M26.96 200.67 C20 193.58, 13.08 188.29, 1.3 178.36 M33.36 200.93 C21.64 191.13, 15.66 184.07, 0.15 172.06 M33.36 200.93 C23.15 191.07, 10.98 180.48, 0.15 172.06 M39.76 201.19 C29 193.93, 20.98 183.25, 2.02 168.39 M39.76 201.19 C29.87 192.94, 19.62 185.17, 2.02 168.39 M45.4 200.8 C36.08 194.51, 29.16 185.54, 2.38 163.4 M45.4 200.8 C36.84 192.89, 26.53 184.92, 2.38 163.4 M51.8 201.06 C35.82 186.67, 19.62 174.23, 1.99 157.76 M51.8 201.06 C38.52 190.79, 27.68 179, 1.99 157.76 M58.2 201.32 C46.53 189.95, 36.3 182.61, 2.35 152.77 M58.2 201.32 C40.32 185.26, 21 170.7, 2.35 152.77 M63.84 200.93 C50.64 188.07, 39.33 177.8, 1.95 147.13 M63.84 200.93 C40.14 179.51, 15.86 159.22, 1.95 147.13 M70.24 201.19 C57.64 190.73, 44.49 175.43, 2.31 142.14 M70.24 201.19 C50.63 183.66, 31.26 166.98, 2.31 142.14 M75.88 200.79 C47.48 178.52, 20.21 155.38, 1.92 136.5 M75.88 200.79 C60.19 188.94, 45.49 174.26, 1.92 136.5 M82.28 201.05 C53.32 174.3, 21.54 149.52, 2.28 131.51 M82.28 201.05 C55.52 178.26, 30.42 155.74, 2.28 131.51 M88.68 201.32 C63.21 177.97, 32.63 153.7, 1.88 125.87 M88.68 201.32 C60.83 176.14, 31.85 151.41, 1.88 125.87 M94.32 200.92 C61.09 171.67, 24.03 138.37, 2.25 120.88 M94.32 200.92 C70.03 178.83, 43.46 157.12, 2.25 120.88 M100.72 201.18 C69.84 172.41, 35.62 143.72, 2.61 115.89 M100.72 201.18 C80.5 182.67, 60.38 163.84, 2.61 115.89 M106.36 200.79 C70.93 167.84, 34.84 139.15, 2.21 110.25 M106.36 200.79 C72.39 171.75, 39.3 141.41, 2.21 110.25 M112.76 201.05 C69.22 162.88, 27.5 128.3, 2.57 105.26 M112.76 201.05 C74.38 166.09, 35.68 132.55, 2.57 105.26 M119.16 201.31 C83.07 168.74, 43.06 135.53, 2.18 99.62 M119.16 201.31 C82.68 169.07, 45.54 138.29, 2.18 99.62 M124.8 200.92 C75.64 158.99, 29.71 118.81, 2.54 94.63 M124.8 200.92 C89.37 169.77, 53.5 138, 2.54 94.63 M131.2 201.18 C88.55 163.62, 41.13 125.57, 2.14 88.99 M131.2 201.18 C101.57 174.45, 71.3 148.35, 2.14 88.99 M136.84 200.78 C86.62 155.71, 32.43 112.43, 2.5 84 M136.84 200.78 C102.24 170.66, 65.71 138.74, 2.5 84 M143.24 201.04 C115.36 173.42, 82.16 148.25, 2.11 78.36 M143.24 201.04 C98.41 160.82, 52.56 121.26, 2.11 78.36 M149.64 201.31 C100.22 154.81, 45.86 110.28, 2.47 73.37 M149.64 201.31 C108.43 165.29, 64.72 129.41, 2.47 73.37 M155.28 200.91 C101.38 155.53, 44.74 107.61, 2.07 67.73 M155.28 200.91 C98.48 152.73, 42.61 103.23, 2.07 67.73 M161.68 201.17 C103.06 148.42, 43.11 101.03, 2.43 62.74 M161.68 201.17 C118.11 163.42, 72.79 123.97, 2.43 62.74 M169.58 202.75 C120.25 158.35, 67.5 113.32, 2.79 57.76 M169.58 202.75 C136.48 172.24, 103.75 142.12, 2.79 57.76 M174.47 201.7 C130.6 161.95, 87.81 124.52, 2.4 52.11 M174.47 201.7 C110.75 145.79, 45.91 90.59, 2.4 52.11 M180.12 201.3 C139.55 163.24, 97.17 130.37, 2.76 47.13 M180.12 201.3 C144.07 169.02, 106.97 135.48, 2.76 47.13 M184.25 199.59 C119.47 141.77, 54.21 86.65, 2.36 41.48 M184.25 199.59 C116.65 142.82, 49.11 84.5, 2.36 41.48 M187.63 197.23 C144.03 159.14, 98.94 120.75, 2.72 36.5 M187.63 197.23 C147.64 161.85, 106.14 126.09, 2.72 36.5 M191.76 195.52 C125.8 138.8, 59.01 81.4, 2.33 30.85 M191.76 195.52 C134.12 146.09, 77.59 98.14, 2.33 30.85 M195.14 193.16 C147.72 154.06, 104.19 113.88, 0.43 23.9 M195.14 193.16 C154.14 156.61, 112.01 119.21, 0.43 23.9 M197.01 189.49 C151.49 152.39, 110.65 115.07, 1.54 19.57 M197.01 189.49 C141.52 142.82, 85.63 95.42, 1.54 19.57 M198.88 185.81 C143.54 139.37, 89.04 91.92, 3.41 15.89 M198.88 185.81 C153.92 147.71, 109.58 110.8, 3.41 15.89 M201.5 182.79 C140.59 128.04, 76.96 71.65, 6.03 12.87 M201.5 182.79 C157.92 144.34, 114.73 105.14, 6.03 12.87 M201.86 177.81 C154.68 136.23, 106.51 95.25, 7.9 9.2 M201.86 177.81 C159.69 139.57, 116.6 102.7, 7.9 9.2 M202.22 172.82 C148.21 127.85, 98.7 81.03, 9.77 5.52 M202.22 172.82 C137.41 114.98, 70.22 57.61, 9.77 5.52 M203.34 168.49 C137.89 113.95, 72.83 58.12, 13.91 3.82 M203.34 168.49 C160.2 129.21, 115.45 90.99, 13.91 3.82 M202.94 162.85 C153 117.06, 100.82 72.45, 17.29 1.45 M202.94 162.85 C155.74 122.51, 109.24 82.99, 17.29 1.45 M203.3 157.86 C131.84 94.17, 59.11 32.23, 20.66 -0.91 M203.3 157.86 C160.56 119.94, 117.29 83.65, 20.66 -0.91 M202.91 152.22 C163.39 119.64, 126.04 86.22, 25.55 -1.96 M202.91 152.22 C155.95 112.37, 109.05 71.54, 25.55 -1.96 M203.27 147.23 C143.36 95.41, 83.57 43.48, 32.71 -1.04 M203.27 147.23 C162.15 113.38, 120.96 76.8, 32.71 -1.04 M202.88 141.59 C143.36 88.54, 88.66 40.73, 39.1 -0.78 M202.88 141.59 C157.38 101.45, 111.63 60.8, 39.1 -0.78 M203.24 136.6 C171.5 108.67, 136.95 80.37, 44.75 -1.17 M203.24 136.6 C167.93 107, 131.93 75.88, 44.75 -1.17 M203.6 131.61 C171.25 105.51, 140.6 75.76, 51.14 -0.91 M203.6 131.61 C156.8 89.61, 109.48 49.81, 51.14 -0.91 M203.2 125.97 C165.51 91.42, 128.26 60.08, 57.54 -0.65 M203.2 125.97 C172.32 96.72, 139.27 70.58, 57.54 -0.65 M203.56 120.98 C162.21 83.41, 118.35 46.42, 63.18 -1.05 M203.56 120.98 C153.34 76.85, 101.88 34.06, 63.18 -1.05 M203.17 115.34 C170.35 87.66, 136.78 57.04, 69.58 -0.78 M203.17 115.34 C152.31 72.63, 104.55 29.43, 69.58 -0.78 M203.53 110.35 C176.73 84.97, 147.03 62.57, 75.23 -1.18 M203.53 110.35 C161.12 72.08, 117.08 35.8, 75.23 -1.18 M203.13 104.71 C172.5 81.74, 146.89 55.5, 81.62 -0.92 M203.13 104.71 C165.24 71.98, 128.94 40.61, 81.62 -0.92 M203.49 99.72 C167.63 68.38, 131.6 35.97, 88.02 -0.66 M203.49 99.72 C164.27 66.49, 125.45 33, 88.02 -0.66 M203.1 94.08 C170.66 65.91, 136.44 34.61, 93.66 -1.05 M203.1 94.08 C161.48 58.08, 117.52 21.39, 93.66 -1.05 M203.46 89.09 C178.2 69.97, 156.44 47.79, 100.06 -0.79 M203.46 89.09 C165.26 54.13, 126.02 21.78, 100.06 -0.79 M203.06 83.45 C175.37 61.38, 147.05 36.33, 105.71 -1.18 M203.06 83.45 C179.8 61.87, 157.99 42.04, 105.71 -1.18 M203.42 78.46 C167.82 46.25, 131.06 13.93, 112.1 -0.92 M203.42 78.46 C182.99 60.34, 161 42.7, 112.1 -0.92 M203.03 72.82 C186.41 56.77, 166.45 40.64, 118.5 -0.66 M203.03 72.82 C169.21 44.23, 136.53 14.97, 118.5 -0.66 M203.39 67.83 C180.63 48.79, 159.88 29.32, 124.14 -1.06 M203.39 67.83 C186.65 54.04, 168.86 39.42, 124.14 -1.06 M202.99 62.19 C185.92 45.14, 166.02 32.22, 130.54 -0.79 M202.99 62.19 C180.51 42.73, 161.02 25.78, 130.54 -0.79 M203.35 57.2 C179.11 37.16, 152.52 13.51, 136.18 -1.19 M203.35 57.2 C189.38 44.27, 174.98 32.18, 136.18 -1.19 M202.96 51.56 C180.32 30.59, 157.68 10.52, 142.58 -0.93 M202.96 51.56 C187.79 38.22, 170.75 23.61, 142.58 -0.93 M203.32 46.57 C193.61 37.48, 181.16 27.69, 148.98 -0.67 M203.32 46.57 C190.25 34.62, 177.83 23.37, 148.98 -0.67 M202.92 40.93 C184.29 25.61, 167.34 9.47, 154.62 -1.06 M202.92 40.93 C186.99 25.57, 170.47 11.79, 154.62 -1.06 M203.28 35.94 C188.59 23.65, 176.73 11.87, 161.02 -0.8 M203.28 35.94 C192.64 25.21, 181.04 15.77, 161.02 -0.8 M202.89 30.3 C192.23 19.33, 180.7 9.5, 166.66 -1.19 M202.89 30.3 C191.87 22.19, 183.68 12.85, 166.66 -1.19 M201.74 24 C191.37 16.79, 184.03 11.25, 171.55 -2.24 M201.74 24 C194.74 19.75, 189.75 13.08, 171.55 -2.24 M199.84 17.04 C191.39 10.09, 187.14 7.76, 178.7 -1.33 M199.84 17.04 C194.49 13.33, 189.75 8.64, 178.7 -1.33"
      stroke="#ffec99" stroke-width="0.5" fill="none"></path>
    <path
      d="M32 0 M32 0 C70.17 -1.08, 112.52 1.27, 169.15 0 M32 0 C76.92 -1.04, 123.29 -1.3, 169.15 0 M169.15 0 C189.45 1.37, 202.12 12.29, 201.15 32 M169.15 0 C192.2 -1.47, 198.95 9.09, 201.15 32 M201.15 32 C198.62 68.58, 199.09 107.04, 201.15 170.79 M201.15 32 C200.95 81.27, 201.04 129.45, 201.15 170.79 M201.15 170.79 C202.13 193.88, 190.04 202.02, 169.15 202.79 M201.15 170.79 C200.92 194.37, 192.21 200.76, 169.15 202.79 M169.15 202.79 C128.11 200.75, 88.91 203.91, 32 202.79 M169.15 202.79 C135.16 200.77, 101.96 201.53, 32 202.79 M32 202.79 C9.71 203.54, -0.43 190.85, 0 170.79 M32 202.79 C11.51 202.84, -2.3 193.2, 0 170.79 M0 170.79 C-0.54 126.79, -1.42 80.45, 0 32 M0 170.79 C0.96 139.96, 0.62 108.39, 0 32 M0 32 C0.06 12.39, 9.76 -1.89, 32 0 M0 32 C-0.72 11.62, 10.09 1.84, 32 0"
      stroke="#1e1e1e" stroke-width="1" fill="none"></path>
  </g>
  <g transform="translate(327.3396911621094 520.30078125) rotate(0 12.589996337890625 12.5)">
    <text x="12.589996337890625" y="0" font-family="Virgil, Segoe UI Emoji" font-size="20px"
      fill="#1e1e1e" text-anchor="middle" style="white-space: pre;" direction="ltr"
      dominant-baseline="text-before-edge">UI</text>
  </g>
  <g stroke-linecap="round"
    transform="translate(470.71484375 88.529296875) rotate(0 100.57421875 101.392578125)">
    <path
      d="M7.86 8.16 C7.86 8.16, 7.86 8.16, 7.86 8.16 M7.86 8.16 C7.86 8.16, 7.86 8.16, 7.86 8.16 M3.66 19.09 C6.83 17.5, 11.03 14, 18.1 2.48 M3.66 19.09 C8.49 14.65, 12.35 7.94, 18.1 2.48 M2.75 26.24 C8.98 23.07, 10.31 16.95, 24.4 1.33 M2.75 26.24 C10.43 18.76, 17.34 10.6, 24.4 1.33 M2.48 32.64 C11.42 20.16, 21.17 11.74, 30.7 0.18 M2.48 32.64 C9.66 23.53, 18.01 13.01, 30.7 0.18 M2.88 38.28 C10.59 30.3, 21.93 20.24, 34.37 2.05 M2.88 38.28 C10.45 28.96, 17.81 21.62, 34.37 2.05 M2.62 44.68 C13.52 34.2, 19.65 23.28, 39.36 2.41 M2.62 44.68 C13.87 30.04, 26.15 16.88, 39.36 2.41 M2.36 51.07 C19.02 32.55, 36.73 11.85, 45 2.02 M2.36 51.07 C17.13 32.71, 32.92 15.65, 45 2.02 M2.75 56.72 C12.87 47.1, 23.46 33.82, 49.99 2.38 M2.75 56.72 C13.03 46.2, 22.42 34.7, 49.99 2.38 M2.49 63.11 C24.76 40.19, 42.86 17.9, 55.63 1.98 M2.49 63.11 C18.81 44.98, 34.4 24.39, 55.63 1.98 M2.23 69.51 C15.58 56.88, 26.37 41.69, 60.62 2.34 M2.23 69.51 C21.8 46.55, 41.78 23.84, 60.62 2.34 M2.62 75.16 C21.15 53.47, 37.55 35.42, 66.26 1.95 M2.62 75.16 C20.03 55.49, 37.58 35.56, 66.26 1.95 M2.36 81.55 C25.8 55.78, 48.02 31.24, 71.25 2.31 M2.36 81.55 C21.47 58.5, 40.37 38.12, 71.25 2.31 M2.76 87.2 C28.96 57.62, 55.39 25.23, 76.89 1.91 M2.76 87.2 C28.99 57.03, 55.68 27.63, 76.89 1.91 M2.49 93.59 C26.38 66.21, 52.12 38.49, 81.88 2.27 M2.49 93.59 C23 72.31, 40.89 50.28, 81.88 2.27 M2.23 99.99 C28.48 69.87, 55.26 37.56, 87.52 1.88 M2.23 99.99 C22.02 76.34, 43.82 51.72, 87.52 1.88 M2.63 105.64 C32.93 67.77, 64.65 30.92, 92.51 2.24 M2.63 105.64 C37.5 66.48, 69.75 29.21, 92.51 2.24 M2.37 112.03 C27.89 82.92, 51.71 57.61, 98.15 1.85 M2.37 112.03 C35.6 73.77, 68.03 35.79, 98.15 1.85 M2.1 118.43 C40.72 71.65, 81.19 24.49, 103.14 2.21 M2.1 118.43 C32.08 82.82, 62.29 47.4, 103.14 2.21 M2.5 124.07 C39.27 85.43, 72.57 44.53, 108.78 1.81 M2.5 124.07 C28.11 94.56, 55.88 65.23, 108.78 1.81 M2.24 130.47 C42.92 82.54, 87.11 36.94, 113.77 2.17 M2.24 130.47 C43.86 83.13, 85.29 36.03, 113.77 2.17 M1.98 136.87 C42.49 92.48, 81.8 48.47, 119.41 1.78 M1.98 136.87 C29.34 106.34, 58.25 74.28, 119.41 1.78 M2.37 142.51 C46.34 95.02, 88.38 42.82, 124.4 2.14 M2.37 142.51 C46.73 90.15, 92.21 39.06, 124.4 2.14 M2.11 148.91 C34.05 112.1, 62.31 80.22, 130.04 1.74 M2.11 148.91 C30.62 117.74, 57.71 85.92, 130.04 1.74 M2.5 154.55 C34.44 114.68, 68.46 77.72, 135.03 2.1 M2.5 154.55 C39.4 114.31, 74.17 71.86, 135.03 2.1 M2.24 160.95 C43.68 114.5, 81.47 68.11, 140.67 1.71 M2.24 160.95 C51.39 104.91, 101.44 48.45, 140.67 1.71 M1.98 167.35 C39.6 119.19, 83.38 75.2, 145.66 2.07 M1.98 167.35 C42.41 123.71, 80.7 78.91, 145.66 2.07 M2.38 172.99 C51.93 118.55, 100.28 61.21, 150.65 2.43 M2.38 172.99 C39.9 128.08, 79.16 85.04, 150.65 2.43 M3.43 177.88 C51.18 122.12, 99.49 68.54, 156.29 2.03 M3.43 177.88 C48.85 122.37, 96.87 69.12, 156.29 2.03 M2.51 185.03 C41 140.87, 78.43 94.11, 161.28 2.39 M2.51 185.03 C66.72 112.47, 130.75 39.42, 161.28 2.39 M4.87 188.41 C52.4 131.23, 103.98 75.95, 166.92 2 M4.87 188.41 C66.12 114.05, 130.44 42.2, 166.92 2 M6.58 192.55 C60.78 128.49, 118.7 64.62, 171.91 2.36 M6.58 192.55 C50.29 141.85, 94.25 91.29, 171.91 2.36 M8.94 195.92 C55.61 140.84, 102.88 85.05, 176.89 2.72 M8.94 195.92 C53.59 145.56, 96.29 96.06, 176.89 2.72 M12.62 197.79 C69.79 129.02, 129.47 63.3, 181.22 3.83 M12.62 197.79 C54.67 150.4, 96 101.67, 181.22 3.83 M16.29 199.66 C82.78 125.3, 145.4 52.81, 186.21 4.19 M16.29 199.66 C67.04 140.28, 119.51 79.86, 186.21 4.19 M19.31 202.29 C57.17 158.36, 96.74 114.52, 189.23 6.82 M19.31 202.29 C71.42 141.02, 124.07 80.28, 189.23 6.82 M24.3 202.65 C84.28 134.54, 143.95 66.85, 193.56 7.93 M24.3 202.65 C71.99 148.79, 117.92 96.47, 193.56 7.93 M28.63 203.76 C90.59 132.65, 150.06 62.36, 195.27 12.07 M28.63 203.76 C87.07 138.45, 144.55 72.21, 195.27 12.07 M33.61 204.12 C78.58 151.84, 124.9 97.35, 197.63 15.45 M33.61 204.12 C90.71 138.76, 149.11 70.21, 197.63 15.45 M38.6 204.48 C99.42 133.04, 159.64 64.21, 199.99 18.82 M38.6 204.48 C75.43 163.42, 112.78 121.03, 199.99 18.82 M44.25 204.09 C89.68 152.5, 136.01 102.9, 201.04 23.71 M44.25 204.09 C90.74 150.49, 137.01 97.74, 201.04 23.71 M49.23 204.45 C97.04 150.71, 141.77 100.39, 201.44 29.36 M49.23 204.45 C100.07 147.48, 149.66 90.11, 201.44 29.36 M54.88 204.05 C86.9 168.61, 116.34 136.66, 203.14 33.49 M54.88 204.05 C94.04 158.84, 133.31 112.82, 203.14 33.49 M59.86 204.41 C116.34 138.13, 172.67 74.42, 202.88 39.89 M59.86 204.41 C93.22 166.96, 124.81 129.79, 202.88 39.89 M65.51 204.02 C108.78 153.72, 149.35 104.6, 203.28 45.53 M65.51 204.02 C96.75 168.76, 125.33 133.82, 203.28 45.53 M70.49 204.38 C121.08 148.03, 169.35 92.37, 203.02 51.93 M70.49 204.38 C123.31 144.05, 174.39 84.16, 203.02 51.93 M76.14 203.98 C123.8 149.24, 171.83 91.65, 202.75 58.33 M76.14 203.98 C116.29 155.69, 157.69 108.94, 202.75 58.33 M81.12 204.34 C117.76 160.93, 158.01 116.68, 203.15 63.97 M81.12 204.34 C117.07 164.02, 153.23 121.11, 203.15 63.97 M86.77 203.95 C117.61 171.4, 147.11 136.76, 202.89 70.37 M86.77 203.95 C124.48 157.88, 163.39 113.13, 202.89 70.37 M91.75 204.31 C115.88 179.95, 139.04 152.41, 203.28 76.01 M91.75 204.31 C127.08 163.21, 161.67 123.88, 203.28 76.01 M97.4 203.92 C126.87 171.17, 152.39 139.88, 203.02 82.41 M97.4 203.92 C119.47 176.86, 143.54 150.37, 203.02 82.41 M102.38 204.28 C142.87 156.6, 182.79 114.89, 202.76 88.81 M102.38 204.28 C122.86 179.8, 143.79 155.92, 202.76 88.81 M108.03 203.88 C144.52 159.27, 184.48 117.18, 203.15 94.45 M108.03 203.88 C135.84 170.25, 165.45 138.13, 203.15 94.45 M113.01 204.24 C139.04 171.51, 168.14 143.6, 202.89 100.85 M113.01 204.24 C136.04 178.02, 156.65 153.68, 202.89 100.85 M118.66 203.85 C145.94 169.54, 173.62 140.23, 203.29 106.49 M118.66 203.85 C149.07 166.59, 182.31 130.9, 203.29 106.49 M123.64 204.21 C146.22 176.44, 173.86 147.49, 203.03 112.89 M123.64 204.21 C147.32 176.93, 170.15 151.19, 203.03 112.89 M129.29 203.81 C143.54 185.88, 160.18 166.97, 202.76 119.28 M129.29 203.81 C154.18 174.79, 180.43 144.95, 202.76 119.28 M134.27 204.17 C155.48 176.17, 180.26 152.18, 203.16 124.93 M134.27 204.17 C155.61 179.94, 178.58 154.81, 203.16 124.93 M139.26 204.53 C156.09 183.52, 175.24 161.8, 202.9 131.33 M139.26 204.53 C152.08 188.84, 166.61 171.97, 202.9 131.33 M144.9 204.14 C167.17 177.83, 189.37 150.86, 203.29 136.97 M144.9 204.14 C161.38 185.41, 176.7 168.66, 203.29 136.97 M149.89 204.5 C160.44 188.9, 175 175.59, 203.03 143.37 M149.89 204.5 C166.86 187.04, 182.46 169.58, 203.03 143.37 M155.53 204.1 C166.08 193.63, 174.83 181.35, 202.77 149.76 M155.53 204.1 C166.22 191.94, 176.09 180.52, 202.77 149.76 M160.52 204.46 C170.76 193.98, 182.51 181.74, 203.16 155.41 M160.52 204.46 C176.14 187.92, 190.48 169.73, 203.16 155.41 M166.16 204.07 C179.27 187.9, 190.27 173.72, 202.9 161.81 M166.16 204.07 C175.37 195, 183.3 186.02, 202.9 161.81 M171.15 204.43 C183.48 189.84, 197.72 176.26, 203.3 167.45 M171.15 204.43 C181.73 192.92, 190.95 181.55, 203.3 167.45 M177.45 203.28 C188.3 194.39, 194.51 183.72, 203.69 173.09 M177.45 203.28 C183.85 195.92, 190.54 189.65, 203.69 173.09 M184.4 201.38 C189.38 192.59, 199.38 184.99, 202.77 180.24 M184.4 201.38 C191.47 195.15, 197.32 187.59, 202.77 180.24 M8.13 194.9 C8.13 194.9, 8.13 194.9, 8.13 194.9 M8.13 194.9 C8.13 194.9, 8.13 194.9, 8.13 194.9 M19.06 199.1 C15.04 196.78, 10.44 190.65, 2.45 184.66 M19.06 199.1 C12.45 193.33, 6.59 188.28, 2.45 184.66 M26.96 200.67 C20.71 197.31, 14.41 191.45, 1.3 178.36 M26.96 200.67 C21.11 196.21, 14.98 189.87, 1.3 178.36 M33.36 200.93 C25.95 192.65, 16.01 188.88, 0.15 172.06 M33.36 200.93 C22.63 190.91, 13 182.19, 0.15 172.06 M39.76 201.19 C24.56 187.46, 12.48 175.8, 2.02 168.39 M39.76 201.19 C27.97 191.84, 18.55 181.82, 2.02 168.39 M45.4 200.8 C28.05 187.37, 13.29 175.75, 2.38 163.4 M45.4 200.8 C30.48 187.69, 14.33 174.71, 2.38 163.4 M51.8 201.06 C36.63 189.35, 21.47 174.85, 1.99 157.76 M51.8 201.06 C30.71 184.8, 11.17 166.73, 1.99 157.76 M58.2 201.32 C44.62 191.38, 31.83 178.81, 2.35 152.77 M58.2 201.32 C45.59 191.62, 33.63 180.32, 2.35 152.77 M63.84 200.93 C50.93 187.02, 33.87 175.63, 1.95 147.13 M63.84 200.93 C46.33 186.02, 30.15 172.43, 1.95 147.13 M70.24 201.19 C42.91 176, 17.93 154.02, 2.31 142.14 M70.24 201.19 C55.46 186.95, 40.13 173.75, 2.31 142.14 M75.88 200.79 C48.8 179.39, 26.78 155.81, 1.92 136.5 M75.88 200.79 C49.42 177.07, 22.32 153.54, 1.92 136.5 M82.28 201.05 C65.82 183.81, 47.24 168.36, 2.28 131.51 M82.28 201.05 C55.59 177.58, 28.1 156, 2.28 131.51 M88.68 201.32 C59.16 172.86, 27.21 149.01, 1.88 125.87 M88.68 201.32 C60.37 176.57, 30.95 153.14, 1.88 125.87 M94.32 200.92 C60.07 169.9, 27.63 142.77, 2.25 120.88 M94.32 200.92 C71.95 180.14, 49.16 161.33, 2.25 120.88 M100.72 201.18 C74.4 179.07, 50.09 158.24, 2.61 115.89 M100.72 201.18 C70.82 174.02, 41.17 148.88, 2.61 115.89 M106.36 200.79 C83.8 181.9, 60.91 162, 2.21 110.25 M106.36 200.79 C72.43 170.02, 36.93 138.82, 2.21 110.25 M112.76 201.05 C91.99 180.88, 67.62 162.58, 2.57 105.26 M112.76 201.05 C86.26 178.54, 59.24 156.5, 2.57 105.26 M119.16 201.31 C78.99 166.81, 37.24 131.38, 2.18 99.62 M119.16 201.31 C86.68 173.41, 52.59 143.52, 2.18 99.62 M124.8 200.92 C91.56 171.3, 59.02 145.13, 2.54 94.63 M124.8 200.92 C79.9 162.61, 35.85 125.11, 2.54 94.63 M131.2 201.18 C91.57 168.34, 53.46 135.29, 2.14 88.99 M131.2 201.18 C97.38 170.89, 63.2 142.34, 2.14 88.99 M136.84 200.78 C101.48 169.64, 68.6 142.06, 2.5 84 M136.84 200.78 C91.49 161.13, 48.68 124.63, 2.5 84 M143.24 201.04 C112.25 172.94, 78.29 146.66, 2.11 78.36 M143.24 201.04 C92.21 156.34, 39.46 113.16, 2.11 78.36 M149.64 201.31 C106.8 163.6, 66.13 128.9, 2.47 73.37 M149.64 201.31 C111.29 168.21, 71.55 134.2, 2.47 73.37 M155.28 200.91 C96.74 151.2, 36.08 98.54, 2.07 67.73 M155.28 200.91 C102.11 155.72, 48.08 109.28, 2.07 67.73 M161.68 201.17 C125.59 169.45, 90.36 139.59, 2.43 62.74 M161.68 201.17 C110.11 155.78, 58.55 112.04, 2.43 62.74 M169.58 202.75 C116.58 156.39, 65.56 112.37, 2.79 57.76 M169.58 202.75 C118.99 158, 69.7 115.25, 2.79 57.76 M174.47 201.7 C133.7 167.03, 89.83 131.02, 2.4 52.11 M174.47 201.7 C119.01 153.24, 63.46 105.13, 2.4 52.11 M180.12 201.3 C142.46 169.44, 107.07 139.23, 2.76 47.13 M180.12 201.3 C115.26 144.03, 48.6 86.56, 2.76 47.13 M184.25 199.59 C140.57 160.45, 95.44 120.07, 2.36 41.48 M184.25 199.59 C128.68 151.27, 72.74 102.49, 2.36 41.48 M187.63 197.23 C124.76 141.66, 63.91 88.29, 2.72 36.5 M187.63 197.23 C141.18 154.49, 93.65 113.02, 2.72 36.5 M191.76 195.52 C141.63 151.38, 91.89 105.99, 2.33 30.85 M191.76 195.52 C153.05 163.68, 115.18 128.99, 2.33 30.85 M195.14 193.16 C135.83 142, 79.81 94.04, 0.43 23.9 M195.14 193.16 C133.16 139.88, 74.16 86.48, 0.43 23.9 M197.01 189.49 C141.83 144.16, 88.94 96.95, 1.54 19.57 M197.01 189.49 C130.4 132.68, 63.74 73.52, 1.54 19.57 M198.88 185.81 C142.15 138.62, 88.92 89.12, 3.41 15.89 M198.88 185.81 C158.85 150.06, 116.76 114.98, 3.41 15.89 M201.5 182.79 C134.56 123.4, 69 65.86, 6.03 12.87 M201.5 182.79 C130.78 120.07, 61.47 59.4, 6.03 12.87 M201.86 177.81 C154.04 136.34, 107.99 96.73, 7.9 9.2 M201.86 177.81 C142.52 126.69, 83.08 73.64, 7.9 9.2 M202.22 172.82 C146.22 121.81, 89.73 75.5, 9.77 5.52 M202.22 172.82 C150.29 127.19, 97.65 80.7, 9.77 5.52 M203.34 168.49 C140.47 115.38, 78.62 62.98, 13.91 3.82 M203.34 168.49 C148.81 120.55, 94.16 73.73, 13.91 3.82 M202.94 162.85 C155.62 122, 111.8 81.49, 17.29 1.45 M202.94 162.85 C163.18 129.51, 121.64 94.15, 17.29 1.45 M203.3 157.86 C159.06 120.77, 115.53 82.62, 20.66 -0.91 M203.3 157.86 C150.88 112.59, 99.32 66.21, 20.66 -0.91 M202.91 152.22 C147.83 107.61, 95.49 60.71, 25.55 -1.96 M202.91 152.22 C148.25 103.94, 92.68 55.57, 25.55 -1.96 M203.27 147.23 C152.69 104.55, 105.73 61.33, 32.71 -1.04 M203.27 147.23 C137.2 87.98, 68.21 28.23, 32.71 -1.04 M202.88 141.59 C165.72 111.81, 128.74 80.68, 39.1 -0.78 M202.88 141.59 C140.14 87.39, 78.48 33.15, 39.1 -0.78 M203.24 136.6 C152.2 91.62, 104.81 48.97, 44.75 -1.17 M203.24 136.6 C147.49 89.33, 94.26 41.91, 44.75 -1.17 M203.6 131.61 C151.27 86.51, 98.02 41.68, 51.14 -0.91 M203.6 131.61 C165.6 100.51, 128.69 67.79, 51.14 -0.91 M203.2 125.97 C171.96 100.43, 142.79 76.22, 57.54 -0.65 M203.2 125.97 C172.27 98.82, 140.22 71.9, 57.54 -0.65 M203.56 120.98 C163.32 85.28, 121.44 49.72, 63.18 -1.05 M203.56 120.98 C172.74 93.19, 142.17 66.41, 63.18 -1.05 M203.17 115.34 C161.11 76.46, 115.02 35.22, 69.58 -0.78 M203.17 115.34 C155.12 75.83, 109.26 36.01, 69.58 -0.78 M203.53 110.35 C169.44 80.83, 133.49 51.64, 75.23 -1.18 M203.53 110.35 C173.38 85.38, 144.83 57.8, 75.23 -1.18 M203.13 104.71 C161.69 69.54, 121.87 33.13, 81.62 -0.92 M203.13 104.71 C176.71 83.64, 150.41 61.2, 81.62 -0.92 M203.49 99.72 C163.2 66.86, 123.59 31.63, 88.02 -0.66 M203.49 99.72 C168.32 70.19, 134.17 41.3, 88.02 -0.66 M203.1 94.08 C165.12 58.47, 125.64 26.87, 93.66 -1.05 M203.1 94.08 C165.91 62.37, 130.07 29.98, 93.66 -1.05 M203.46 89.09 C165.82 57.29, 124.02 23.7, 100.06 -0.79 M203.46 89.09 C180.55 68.71, 158.44 49.05, 100.06 -0.79 M203.06 83.45 C164.96 51.67, 127.84 18.88, 105.71 -1.18 M203.06 83.45 C183.51 65.56, 161.98 47.9, 105.71 -1.18 M203.42 78.46 C177.09 57.35, 153.01 36.31, 112.1 -0.92 M203.42 78.46 C172.66 52.54, 143.05 27.39, 112.1 -0.92 M203.03 72.82 C180.37 51.52, 153.94 29.2, 118.5 -0.66 M203.03 72.82 C173.3 48, 143.93 22.82, 118.5 -0.66 M203.39 67.83 C173.28 45.67, 148.67 21.14, 124.14 -1.06 M203.39 67.83 C177.3 45.34, 151.64 23.61, 124.14 -1.06 M202.99 62.19 C185.71 49.11, 167.59 30.46, 130.54 -0.79 M202.99 62.19 C187.72 49.09, 171.33 35.93, 130.54 -0.79 M203.35 57.2 C175.72 32.83, 152.99 12.12, 136.18 -1.19 M203.35 57.2 C189.09 44.57, 173.34 31.84, 136.18 -1.19 M202.96 51.56 C185.49 36.02, 171.1 24.81, 142.58 -0.93 M202.96 51.56 C180.74 34.06, 160.28 15.93, 142.58 -0.93 M203.32 46.57 C183.27 31.54, 166.38 14.82, 148.98 -0.67 M203.32 46.57 C191.17 36.33, 179.02 24.36, 148.98 -0.67 M202.92 40.93 C191.04 28.35, 177.47 19.31, 154.62 -1.06 M202.92 40.93 C192.17 32.21, 182.05 22.02, 154.62 -1.06 M203.28 35.94 C192.38 24.7, 181.61 18.62, 161.02 -0.8 M203.28 35.94 C192.67 27.03, 181.63 17.93, 161.02 -0.8 M202.89 30.3 C193.67 24.4, 186.31 13.25, 166.66 -1.19 M202.89 30.3 C190.31 20.38, 178.39 8.24, 166.66 -1.19 M201.74 24 C190.7 16.52, 184.83 6.69, 171.55 -2.24 M201.74 24 C189.79 14.35, 178.62 2.32, 171.55 -2.24 M199.84 17.04 C194.15 14.3, 192.19 9.17, 178.7 -1.33 M199.84 17.04 C191.81 10.59, 183.58 2.85, 178.7 -1.33"
      stroke="#b2f2bb" stroke-width="0.5" fill="none"></path>
    <path
      d="M32 0 M32 0 C61.42 1.03, 90.64 -0.85, 169.15 0 M32 0 C67.51 1.54, 104.54 1.67, 169.15 0 M169.15 0 C191.98 -1.28, 199.24 9.3, 201.15 32 M169.15 0 C189.65 -2.18, 202.85 9.27, 201.15 32 M201.15 32 C201.7 74.38, 201.5 113.49, 201.15 170.79 M201.15 32 C200.68 77.44, 199.97 120.74, 201.15 170.79 M201.15 170.79 C200.95 194.08, 191.98 201.03, 169.15 202.79 M201.15 170.79 C200.84 191.99, 190.23 200.78, 169.15 202.79 M169.15 202.79 C139.78 202.5, 110.88 202.04, 32 202.79 M169.15 202.79 C137.76 203.18, 107.11 202.17, 32 202.79 M32 202.79 C11.4 202.83, -2 193.06, 0 170.79 M32 202.79 C11.18 202.57, -0.4 191.34, 0 170.79 M0 170.79 C-0.4 123.84, 0.4 79.07, 0 32 M0 170.79 C-0.44 122.16, -0.92 70.87, 0 32 M0 32 C-0.63 11.5, 10.17 1.6, 32 0 M0 32 C-0.05 9.49, 8.46 -1.75, 32 0"
      stroke="#1e1e1e" stroke-width="1" fill="none"></path>
  </g>
  <g transform="translate(490.6796875 176.4140625) rotate(0 83.23991394042969 12.5)">
    <text x="0" y="0" font-family="Virgil, Segoe UI Emoji" font-size="20px" fill="#1e1e1e"
      text-anchor="start" style="white-space: pre;" direction="ltr"
      dominant-baseline="text-before-edge">Services methods</text>
  </g>
  <g mask="url(#mask-zUttbhjWKmmRgKRv6fRkK)" stroke-linecap="round">
    <g
      transform="translate(503.67542720224674 87.529296875) rotate(0 -149.86948122089711 -31.513840457843514)">
      <path
        d="M1.05 0.09 C-23.5 -10.79, -97.32 -65.53, -147.63 -65.3 C-197.93 -65.07, -275.3 -9.73, -300.79 1.47 M0.14 -0.9 C-24.54 -11.6, -98.81 -64.43, -148.59 -63.9 C-198.36 -63.37, -273.14 -8.83, -298.51 2.27"
        stroke="#f08c00" stroke-width="1" fill="none"></path>
    </g>
    <g
      transform="translate(503.67542720224674 87.529296875) rotate(0 -149.86948122089711 -31.513840457843514)">
      <path
        d="M-278.75 -20.47 C-284.69 -16.04, -291.22 -9.51, -299.45 2.19 M-279.43 -20.8 C-286.69 -12.76, -293.22 -3.94, -297.83 3.21"
        stroke="#f08c00" stroke-width="1" fill="none"></path>
    </g>
    <g
      transform="translate(503.67542720224674 87.529296875) rotate(0 -149.86948122089711 -31.513840457843514)">
      <path
        d="M-268.74 -2.56 C-277.4 -2.91, -286.65 -1.26, -299.45 2.19 M-269.42 -2.89 C-280.19 -1.48, -290.41 0.74, -297.83 3.21"
        stroke="#f08c00" stroke-width="1" fill="none"></path>
    </g>
  </g>
  <mask id="mask-zUttbhjWKmmRgKRv6fRkK">
    <rect x="0" y="0" fill="#fff" width="903.2922606544935" height="255.0075361434391"></rect>
    <rect x="318.370361328125" y="10" fill="#000" width="75.39990234375" height="25" opacity="1"></rect>
  </mask>
  <g transform="translate(318.370361328125 10) rotate(0 35.43558465322462 46.015456417156486)">
    <text x="37.699951171875" y="0" font-family="Virgil, Segoe UI Emoji" font-size="20px"
      fill="#f08c00" text-anchor="middle" style="white-space: pre;" direction="ltr"
      dominant-baseline="text-before-edge">modifies</text>
  </g>
  <g mask="url(#mask-_6gYPaqRVxTBn3pZ3fnEn)" stroke-linecap="round">
    <g
      transform="translate(102.28218359869436 286.1679687500001) rotate(0 68.29382612356682 120.09882868647486)">
      <path
        d="M0.57 -0.4 C7.52 20.78, 19.53 87.97, 41.9 128.22 C64.26 168.47, 119.07 222.08, 134.75 241.1 M-0.6 -1.66 C6.29 20.14, 18.59 88.56, 41.56 129.15 C64.52 169.74, 121.38 222.8, 137.18 241.86"
        stroke="#f08c00" stroke-width="1" fill="none"></path>
    </g>
    <g
      transform="translate(102.28218359869436 286.1679687500001) rotate(0 68.29382612356682 120.09882868647486)">
      <path
        d="M109.81 230.11 C117.01 230.85, 125.5 237.16, 137.41 241.23 M110.26 228.36 C120.27 232.42, 128.98 238.24, 136.3 242.18"
        stroke="#f08c00" stroke-width="1" fill="none"></path>
    </g>
    <g
      transform="translate(102.28218359869436 286.1679687500001) rotate(0 68.29382612356682 120.09882868647486)">
      <path
        d="M124.85 216.15 C127.48 221.31, 131.28 231.98, 137.41 241.23 M125.3 214.4 C130.26 223.12, 133.87 233.67, 136.3 242.18"
        stroke="#f08c00" stroke-width="1" fill="none"></path>
    </g>
  </g>
  <mask id="mask-_6gYPaqRVxTBn3pZ3fnEn">
    <rect x="0" y="0" fill="#fff" width="337.921875" height="628.3276371568426"></rect>
    <rect x="103.49957275390625" y="403.05078125" fill="#000" width="79.0399169921875" height="25"
      opacity="1"></rect>
  </mask>
  <g
    transform="translate(103.49957275390625 403.05078125) rotate(0 67.07643696835493 3.216016186474974)">
    <text x="39.51995849609375" y="0" font-family="Virgil, Segoe UI Emoji" font-size="20px"
      fill="#f08c00" text-anchor="middle" style="white-space: pre;" direction="ltr"
      dominant-baseline="text-before-edge">updates</text>
  </g>
  <g mask="url(#mask-Poyj2b2KQ7jBskWTpfCDa)" stroke-linecap="round">
    <g
      transform="translate(442.0390625 529.012021618456) rotate(0 72.16136082496485 -118.01144706761852)">
      <path
        d="M0.33 0.28 C18.13 -15.05, 83.2 -53.73, 107.36 -93.16 C131.52 -132.59, 138.96 -212.31, 145.28 -236.31 M-0.96 -0.61 C17.14 -15.72, 85.25 -53.03, 109.48 -92.11 C133.72 -131.19, 138.44 -211.01, 144.44 -235.09"
        stroke="#f08c00" stroke-width="1" fill="none"></path>
    </g>
    <g
      transform="translate(442.0390625 529.012021618456) rotate(0 72.16136082496485 -118.01144706761852)">
      <path
        d="M150.46 -207.47 C146.78 -216.1, 146.08 -226.36, 142.7 -236.24 M149.71 -206.09 C148.23 -216.38, 145.25 -228.26, 144.36 -235.19"
        stroke="#f08c00" stroke-width="1" fill="none"></path>
    </g>
    <g
      transform="translate(442.0390625 529.012021618456) rotate(0 72.16136082496485 -118.01144706761852)">
      <path
        d="M130.21 -210.8 C133.55 -218.33, 139.9 -227.43, 142.7 -236.24 M129.46 -209.42 C135.74 -218.4, 140.52 -228.99, 144.36 -235.19"
        stroke="#f08c00" stroke-width="1" fill="none"></path>
    </g>
  </g>
  <mask id="mask-Poyj2b2KQ7jBskWTpfCDa">
    <rect x="0" y="0" fill="#fff" width="687.4636078180183" height="865.1216994869119"></rect>
    <rect x="528.1356430053711" y="424.2890625" fill="#000" width="44.75996398925781" height="25"
      opacity="1"></rect>
  </mask>
  <g
    transform="translate(528.1356430053711 424.2890625) rotate(0 -13.935219680406249 -13.288487949162572)">
    <text x="22.379981994628906" y="0" font-family="Virgil, Segoe UI Emoji" font-size="20px"
      fill="#f08c00" text-anchor="middle" style="white-space: pre;" direction="ltr"
      dominant-baseline="text-before-edge">calls</text>
  </g>
</svg>